<svg t="1587730008249" class="icon" viewBox="0 0 1024 1024" version="1.1" xmlns="http://www.w3.org/2000/svg" p-id="7089" width="100" height="100">
    <path d="M717.85283637 606.50763464V528.29441978c0-7.60406256-5.97462057-14.12183047-14.12183046-14.12183048H526.12183047V453.34008884H636.92388487c16.8375671 0 30.41625023-14.12183047 30.41625022-30.95939755V308.86290026c0-17.38071443-13.57868314-30.95939755-30.41625023-30.95939756H387.07611513c-16.8375671 0-30.41625023 14.12183047-30.41625022 30.95939756v112.9746437c0 17.38071443 13.57868314 30.95939755 30.41625023 30.95939756h110.80205439v60.83250046H319.72584676c-7.60406256 0-14.12183047 6.5177679-14.12183045 14.66497779v78.21321486h-30.41625024c-15.20812511 0-27.7005136 13.03553581-27.70051359 28.78680825v82.55839349c0 15.75127245 12.49238848 28.78680826 27.70051359 28.78680826H363.17763281c15.75127245 0 28.24366093-13.03553581 27.7005136-28.78680826v-82.55839349c0-15.75127245-12.49238848-28.78680826-27.70051359-28.78680825h-29.32995559v-63.54823708h164.0304923v63.54823708h-29.87310289c-15.20812511 0-27.7005136 13.03553581-27.70051361 28.78680825v82.55839349c0 15.75127245 12.49238848 28.78680826 27.70051361 28.78680826h87.98986673c15.20812511 0 27.7005136-12.49238848 27.7005136-28.78680826v-82.55839349c0-15.75127245-12.49238848-28.78680826-27.70051361-28.78680825h-29.8731029v-63.54823708h164.03049231v63.54823708h-28.78680826c-15.20812511 0-27.7005136 13.03553581-27.70051359 28.78680825v82.55839349c0 15.75127245 12.49238848 28.78680826 27.70051359 28.78680826h87.98986675c15.20812511 0 27.7005136-13.03553581 27.70051359-28.78680826v-82.55839349c0-15.75127245-12.49238848-28.78680826-27.70051359-28.78680825h-31.50254489z" p-id="7090" fill="#F24153"></path>
</svg>