<?xml version="1.0" encoding="utf-8"?>
<!-- Generator: Adobe Illustrator 19.0.0, SVG Export Plug-In . SVG Version: 6.00 Build 0)  -->
<svg version="1.1" id="图层_1" xmlns="http://www.w3.org/2000/svg" xmlns:xlink="http://www.w3.org/1999/xlink" x="0px" y="0px"
	 viewBox="0 0 510.2 49.1" style="enable-background:new 0 0 510.2 49.1;" xml:space="preserve">
<style type="text/css">
	.st0{fill:#F9F9F9;stroke:#F9F9F9;stroke-miterlimit:10;}
	.st1{fill:#FFFFFF;stroke:#F9F9F9;stroke-miterlimit:10;}
	.st2{fill:#FFFFFF;stroke:#F9F9F9;stroke-width:0.5;stroke-miterlimit:10;}
	.st3{opacity:0.65;fill:#040000;}
	.st4{font-family:'MicrosoftYaHei';}
	.st5{font-size:10px;}
</style>
<rect id="XMLID_1_" x="0.5" y="0.5" class="st0" width="509" height="24"/>
<rect id="XMLID_3_" x="0.5" y="24.5" class="st1" width="509" height="24"/>
<path id="XMLID_2_" class="st2" d="M401.3,48.5L401.3,48.5c-0.1,0-0.2-0.1-0.2-0.2v-46c0-0.1,0.1-0.2,0.2-0.2l0,0
	c0.1,0,0.2,0.1,0.2,0.2v46C401.5,48.4,401.4,48.5,401.3,48.5z"/>
<path id="XMLID_6_" class="st2" d="M167.1,48.5L167.1,48.5c-0.1,0-0.2-0.1-0.2-0.2v-46c0-0.1,0.1-0.2,0.2-0.2l0,0
	c0.1,0,0.2,0.1,0.2,0.2v46C167.4,48.4,167.3,48.5,167.1,48.5z"/>
<path id="XMLID_9_" class="st2" d="M258.1,48.5L258.1,48.5c-0.1,0-0.2-0.1-0.2-0.2v-46c0-0.1,0.1-0.2,0.2-0.2l0,0
	c0.1,0,0.2,0.1,0.2,0.2v46C258.4,48.4,258.3,48.5,258.1,48.5z"/>
<text id="XMLID_4_" transform="matrix(1 0 0 1 64.1081 15.5519)" class="st3 st4 st5">流程主题</text>
<text id="XMLID_107_" transform="matrix(1 0 0 1 196.6081 15.5519)" class="st3 st4 st5">发起人</text>
<text id="XMLID_108_" transform="matrix(1 0 0 1 319.6081 15.5519)" class="st3 st4 st5">部门</text>
<text id="XMLID_109_" transform="matrix(1 0 0 1 433.1081 15.5519)" class="st3 st4 st5">发起时间</text>
<text id="XMLID_8_" transform="matrix(1 0 0 1 17.922 39.5519)" class="st3 st4 st5">与此审批流程相关的其他流程</text>
<text id="XMLID_7_" transform="matrix(1 0 0 1 174.922 39.5519)" class="st3 st4 st5">张三（财务经理）</text>
<text id="XMLID_10_" transform="matrix(1 0 0 1 270.9221 39.5519)" class="st3 st4 st5">宏天集团/上海总部/财务部</text>
<text id="XMLID_11_" transform="matrix(1 0 0 1 418.9221 39.5519)" class="st3 st4 st5">2018-11-11-12</text>
</svg>
