<svg t="1587729980434" class="icon" viewBox="0 0 1024 1024" version="1.1" xmlns="http://www.w3.org/2000/svg" p-id="6859" width="100" height="100">
  <path d="M715.59555643 354.66185749L469.51870152 305.57235703l-11.32834626 31.46762849-74.26360327 202.33685128a20.45395853 20.45395853 0 0 1-16.6778431 15.73381424 19.19525338 19.19525338 0 0 1-19.50992968-27.69151306l23.91539766-65.4526673L438.05107302 280.39825423a20.13928224 20.13928224 0 0 1 26.43280794-14.78978541l276.60045453 54.75367358a19.82460595 19.82460595 0 0 1 16.67784312 27.6915131c-31.46762849 101.64044005-66.39669614 203.28088014-105.73123177 302.40390992a314.67628504 314.67628504 0 0 1-31.46762851 62.935257 101.95511635 101.95511635 0 0 1-82.13051039 45.62806133A116.11554917 116.11554917 0 0 1 480.53237151 747.37786121c-52.23626332-23.28604509-103.84317407-46.57209019-155.7647611-69.85813528a102.58446891 102.58446891 0 0 1-39.01985934-27.06216052 94.40288551 94.40288551 0 0 1-20.76863482-69.54345898c0-8.4962597 2.20273401-17.30719567 3.46143915-26.74748425l5.34949682 1.88805773c69.54345898 28.00618937 138.77224169 56.32705502 208.31570071 84.0185681a6.60820198 6.60820198 0 0 1 4.72014427 6.92287827 100.06705864 100.06705864 0 0 0 9.12561226 48.77482417 45.62806133 45.62806133 0 0 0 47.51611903 24.23007395 67.0260487 67.0260487 0 0 0 48.46014791-35.87309649 421.98089822 421.98089822 0 0 0 31.4676285-71.74619299c29.57957079-77.09568983 56.01237873-155.4500848 81.81583411-234.11915606 2.83208656-7.86690713 5.34949685-15.73381426 7.86690713-23.91539767z m0 0" fill="#F48D2F" p-id="6860"></path>
  <path d="M577.76734357 599.48000724a18.56590082 18.56590082 0 0 1-24.85942651 17.62187195l-80.55712898-26.74748422a19.50992967 19.50992967 0 0 1-12.90172768-19.82460595 18.56590082 18.56590082 0 0 1 16.36316682-16.36316684 25.80345539 25.80345539 0 0 1 9.75496484 0l77.72504241 25.80345539a18.56590082 18.56590082 0 0 1 14.4751091 18.56590082z m31.46762851-76.46633727a17.62187197 17.62187197 0 0 1-5.03482057 13.21640398 17.93654825 17.93654825 0 0 1-13.21640398 5.34949684 21.71266367 21.71266367 0 0 1-7.8669071 0l-78.35439498-26.74748423a18.8805771 18.8805771 0 0 1-13.84575655-23.28604509 17.93654825 17.93654825 0 0 1 21.0833111-13.53108025c9.44028854 2.51741029 18.25122453 5.97884941 27.3768368 8.81093598l53.49496846 17.62187197a18.56590082 18.56590082 0 0 1 14.78978538 18.25122452z m33.3556862-81.8158341a17.93654825 17.93654825 0 0 1-20.13928223 18.25122453c-11.64302256-2.20273401-22.97136881-5.66417314-34.29971508-8.81093598l-50.34820559-13.53108027a18.25122453 18.25122453 0 0 1-14.7897854-16.67784309 17.93654825 17.93654825 0 0 1 9.12561226-17.93654826 20.76863481 20.76863481 0 0 1 17.30719568 0L606.40288551 417.59711449l22.02733995 5.97884942a19.19525338 19.19525338 0 0 1 14.16043282 18.25122454z m-186.9177133 19.19525339a20.13928224 20.13928224 0 0 1 20.13928224 20.13928224 19.50992967 19.50992967 0 0 1-18.88057709 18.8805771 20.13928224 20.13928224 0 0 1-21.08331111-18.88057709 18.8805771 18.8805771 0 0 1 18.88057711-18.88057712z m31.46762851-40.27856449a19.82460595 19.82460595 0 0 1-20.45395853-19.19525338 17.62187197 17.62187197 0 0 1 5.66417312-13.21640397 18.56590082 18.56590082 0 0 1 13.21640398-5.34949686 19.50992967 19.50992967 0 0 1 20.7686348 19.50992968 17.62187197 17.62187197 0 0 1-19.19525337 17.93654825zM425.46402161 533.0833111a19.50992967 19.50992967 0 0 1 20.45395855 19.19525339 18.56590082 18.56590082 0 0 1-5.34949688 13.21640397 19.82460595 19.82460595 0 0 1-12.90172768 5.34949684 20.13928224 20.13928224 0 0 1-21.71266366-19.19525338 18.8805771 18.8805771 0 0 1 19.50992967-18.56590082z m0 0" fill="#F48D2F" p-id="6861"></path>
</svg>