<?xml version="1.0" encoding="utf-8"?>
<!-- Generator: Adobe Illustrator 19.0.0, SVG Export Plug-In . SVG Version: 6.00 Build 0)  -->
<svg version="1.0" id="图层_1" xmlns="http://www.w3.org/2000/svg" xmlns:xlink="http://www.w3.org/1999/xlink" x="0px" y="0px"
	 viewBox="-99 0 201 90" style="enable-background:new -99 0 201 90;" xml:space="preserve">
<style type="text/css">
	.st0{fill:#FFFFFF;}
	.st1{clip-path:url(#SVGID_3_);}
	.st2{clip-path:url(#SVGID_4_);fill:url(#XMLID_4_);}
	.st3{enable-background:new    ;}
</style>
<g id="XMLID_148_">
</g>
<g id="XMLID_2_">
	<path id="XMLID_63_" class="st0" d="M-48.5,33.9l0.6-0.2C-44.5,32-41,32-40.5,32c-19-0.3-35.9,8.4-41.6,11.7v-24H-96v50.5h0.3l0,0
		h14c0-33.6,44.3-37.1,44.3-37.1C-41.4,33.2-45.1,33.5-48.5,33.9z M-51.2,30.3V19.8h-14.5v13.4C-62.5,32.2-54.2,30.2-51.2,30.3z
		 M-65.4,70.2h14.2V38.3c-4.4,1-11.6,4.8-14.2,6.9V70.2z M-40.5,32C-40.4,32-40.4,32-40.5,32C-40.4,32-40.4,32-40.5,32z"/>
	<path id="XMLID_58_" class="st0" d="M-48.5,34.6l0.6-0.2c3.4-1.7,6.9-1.7,7.4-1.7c-19-0.3-35.9,8.4-41.6,11.7v-24H-96v50.5h0.3l0,0
		h14c0-33.6,44.3-37.1,44.3-37.1C-41.4,33.9-45.1,34.2-48.5,34.6z M-51.2,31V20.6h-14.5V34C-62.5,32.9-54.2,30.9-51.2,31z
		 M-65.4,70.9h14.2V39c-4.4,1-11.6,4.8-14.2,6.9V70.9z M-40.5,32.7C-40.4,32.7-40.4,32.7-40.5,32.7C-40.4,32.7-40.4,32.7-40.5,32.7z
		"/>
	<g id="XMLID_118_">
		<g>
			<defs>
				<polygon id="SVGID_1_" points="-98,1 -97,1 -98,2 				"/>
			</defs>
			<defs>
				<polygon id="SVGID_2_" points="-100,-1 -101,-1 -100,-2 				"/>
			</defs>
			<clipPath id="SVGID_3_">
				<use xlink:href="#SVGID_1_"  style="overflow:visible;"/>
			</clipPath>
			<clipPath id="SVGID_4_" class="st1">
				<use xlink:href="#SVGID_2_"  style="overflow:visible;"/>
			</clipPath>
			
				<linearGradient id="XMLID_4_" gradientUnits="userSpaceOnUse" x1="-66.7" y1="9.1901" x2="-66.7" y2="35.8524" gradientTransform="matrix(1 0 0 -1 0 90)">
				<stop  offset="0" style="stop-color:#FFFFFF"/>
				<stop  offset="1" style="stop-color:#000000"/>
			</linearGradient>
			<path id="XMLID_121_" class="st2" d="M-48.5,34.6l0.6-0.2c3.4-1.7,6.9-1.7,7.4-1.7c-19-0.3-35.9,8.4-41.6,11.7v-24H-96v50.5h0.3
				l0,0h14c0-33.6,44.3-37.1,44.3-37.1C-41.4,33.9-45.1,34.2-48.5,34.6z M-51.2,31V20.6h-14.5V34C-62.5,32.9-54.2,30.9-51.2,31z
				 M-65.4,70.9h14.2V39c-4.4,1-11.6,4.8-14.2,6.9V70.9z M-40.5,32.7C-40.4,32.7-40.4,32.7-40.5,32.7
				C-40.4,32.7-40.4,32.7-40.5,32.7z"/>
		</g>
	</g>
	<path id="XMLID_53_" class="st0" d="M-48.5,34.6l0.6-0.2c3.4-1.7,6.9-1.7,7.4-1.7c-19-0.3-35.9,8.4-41.6,11.7v-24H-96v50.5h0.3l0,0
		h14c0-33.6,44.3-37.1,44.3-37.1C-41.4,33.9-45.1,34.2-48.5,34.6z M-51.2,31V20.6h-14.5V34C-62.5,32.9-54.2,30.9-51.2,31z
		 M-65.4,70.9h14.2V39c-4.4,1-11.6,4.8-14.2,6.9V70.9z M-40.5,32.7C-40.4,32.7-40.4,32.7-40.5,32.7C-40.4,32.7-40.4,32.7-40.5,32.7z
		"/>
	<path id="XMLID_45_" class="st0" d="M-53.1,32.7c0,0,7.3-1,10.9-0.8c0,0-8.4,0.4-14.9,2.9L-53.1,32.7z"/>
</g>
<g class="st3">
	<path class="st0" d="M-6.2,53.1c-0.3-0.6-0.7-1.2-1.2-1.9c-13,0.9-15,1-16.5,1.6c-0.3-1-1.1-3.3-1.6-4.6c0.9-0.2,1.6-0.8,2.6-1.9
		c1.1-1.1,3.8-4.9,5.8-8.9h-2.5c-2.6,5.8-6,10.9-9.9,14.3c-0.9-1-3-3-4.2-3.9c3.3-2.5,6.1-6.2,8.3-10.5h-7.3v-4.7h9.4
		c0.5-1.5,1-3,1.4-4.5h-5.8v3h-4.9v-7.5h12.7c-0.2-0.7-0.4-1.4-0.7-1.9l5.2-1.4c0.4,1,1,2.3,1.4,3.4h11.5v7.5h-5.1v-3h-14.1l5,1.1
		c-0.3,1.1-0.7,2.3-1.1,3.4h15.5v4.7h-14.6l5,1.5c-1.7,3.1-3.9,6.1-5.9,8.5l7.6-0.3c-1.1-1.5-2.2-3.1-3.2-4.4l4.2-2.3
		c2.3,3.1,5.9,7.4,7.6,10.1L-6.2,53.1z"/>
	<path class="st0" d="M20.2,38c2.4,4.9,6.7,8.4,13.2,10.1c-1.2,1.1-2.7,3.2-3.4,4.7c-6.2-1.9-10.3-5.5-13.1-10.7
		c-2.1,4.3-6,8.3-13.2,10.8c-0.6-1.2-2.2-3.3-3.2-4.3c7.4-2.4,10.8-6.5,12.3-10.5H1.7v-5.1h12c0-0.7,0.1-1.3,0.1-1.9v-3.1H3v-5.1
		h27.3v5.1H19v3.2c0,0.6,0,1.2,0,1.8h12.6V38H20.2z"/>
	<path class="st0" d="M46.8,46.2v6.9h-4.4v-6.2c-2.5,0.4-4.9,0.8-6.9,1.2l-1-5c2.2-0.2,4.9-0.6,7.9-1v-3h-3c-1.1,0-2.6,0.2-2.9,0.5
		c-0.2-0.9-1-3-1.5-4.2c0.8-0.3,1.4-1.1,2-2.6c0.3-0.6,0.9-2.2,1.4-4h-3.4v-4.7h4.7c0.3-1.1,0.5-2.3,0.7-3.5l4.8,0.9
		c-0.2,0.9-0.4,1.7-0.6,2.5H50v4.7h-7l-0.4,1.3h4.1v4.5h2.9l0,4.4h-2.9v2.4l3.3-0.4l0.2,4.5L46.8,46.2z M42.3,34.7v-3.8
		c-0.5,1.3-1,2.6-1.5,3.8H42.3z M60.2,34.5c0,1.1,0,2.3-0.2,3.6c1.2,4.8,3.5,8.9,7.6,10.8c-1.1,1-2.6,2.9-3.2,4.2
		c-2.9-1.6-4.9-4.2-6.3-7.4c-1.2,2.6-3,5.2-5.8,7.5c-0.8-1.1-2.5-2.6-3.7-3.4c6.3-4.7,6.9-11.4,6.9-15.5v-1.6h4.7V34.5z M55.8,29.7
		c-0.8,2.7-1.8,5.2-3.1,7c-0.9-0.8-2.9-2.3-4-2.9c2.3-3,3.6-8.1,4.1-13.3l4.8,0.7c-0.2,1.4-0.4,2.7-0.7,4h6.2l0.7-0.1l3.4,0.8
		c-0.6,3.5-1.5,7.5-2.3,10.1l-4-0.9c0.3-1.4,0.7-3.4,1-5.3H55.8z"/>
	<path class="st0" d="M80.4,22.2c-0.9,2.4-2,4.9-3.3,7.3v23.6h-4.7V36.7c-0.5,0.6-1,1.2-1.5,1.7c-0.4-1.2-1.8-4-2.6-5.2
		c2.9-3,5.8-7.7,7.4-12.4L80.4,22.2z M101.3,41.8h-8.5v11.3h-5V41.8h-9v-4.9h9v-5h-3.5c-0.6,1.5-1.3,2.9-1.9,4
		c-1-0.7-3.1-1.8-4.3-2.4c1.8-2.6,3.2-6.9,4-11l4.8,1c-0.2,1.1-0.5,2.3-0.9,3.5h1.8v-6h5v6h6.8v4.9h-6.8v5h8.5V41.8z"/>
</g>
<g class="st3">
	<path class="st0" d="M-45.8,67c0-2.6,1.7-4.1,3.5-4.1c1.9,0,3.5,1.5,3.5,4.1c0,2.5-1.7,4-3.5,4C-44.1,71.1-45.8,69.6-45.8,67z
		 M-39.9,67c0-1.8-1-3.1-2.4-3.1c-1.4,0-2.3,1.2-2.3,3.1c0,1.8,1,3,2.3,3C-40.9,70.1-39.9,68.9-39.9,67z"/>
	<path class="st0" d="M-33.7,68.6v-4.4h-1.2v-0.9l1.2-0.1l0.1-2.2h1v2.2h2.1v1h-2.1v4.5c0,0.9,0.3,1.5,1.2,1.5
		c0.3,0,0.6-0.1,0.9-0.2l0.2,0.9c-0.4,0.1-0.9,0.3-1.4,0.3C-33.2,71.1-33.7,70.1-33.7,68.6z"/>
	<path class="st0" d="M-26.4,67c0-2.5,1.7-4.1,3.4-4.1c1.9,0,3,1.4,3,3.6c0,0.3,0,0.5-0.1,0.7h-5.3c0.1,1.7,1.1,2.9,2.6,2.9
		c0.8,0,1.4-0.2,2-0.6l0.4,0.8c-0.7,0.4-1.5,0.8-2.5,0.8C-24.8,71.1-26.4,69.6-26.4,67z M-21,66.4c0-1.7-0.7-2.5-2-2.5
		c-1.1,0-2.2,0.9-2.3,2.5H-21z"/>
	<path class="st0" d="M-15,63.2h0.9l0.1,1.1h0c0.7-0.7,1.5-1.3,2.6-1.3c1.6,0,2.4,1,2.4,3v4.9h-1.2v-4.7c0-1.5-0.5-2.1-1.5-2.1
		c-0.8,0-1.4,0.4-2.2,1.3v5.6H-15V63.2z"/>
	<path class="st0" d="M-3.2,68.6v-4.4h-1.2v-0.9l1.2-0.1L-3,61h1v2.2h2.1v1h-2.1v4.5c0,0.9,0.3,1.5,1.2,1.5c0.3,0,0.6-0.1,0.9-0.2
		l0.2,0.9c-0.4,0.1-0.9,0.3-1.4,0.3C-2.7,71.1-3.2,70.1-3.2,68.6z"/>
	<path class="st0" d="M10.3,69.5l0.7-0.8c0.8,0.8,1.8,1.3,2.9,1.3c1.4,0,2.3-0.7,2.3-1.8c0-1.1-0.8-1.5-1.8-1.9L13,65.6
		c-1-0.4-2.1-1.1-2.1-2.7c0-1.6,1.4-2.7,3.2-2.7c1.3,0,2.3,0.5,3,1.3l-0.6,0.8c-0.6-0.6-1.4-1-2.4-1c-1.2,0-2,0.6-2,1.6
		c0,1.1,0.9,1.5,1.7,1.8l1.5,0.6c1.2,0.5,2.2,1.2,2.2,2.8c0,1.6-1.4,2.9-3.5,2.9C12.5,71.1,11.2,70.5,10.3,69.5z"/>
	<path class="st0" d="M21.8,67c0-2.6,1.7-4.1,3.5-4.1c1.9,0,3.5,1.5,3.5,4.1c0,2.5-1.7,4-3.5,4C23.5,71.1,21.8,69.6,21.8,67z
		 M27.7,67c0-1.8-1-3.1-2.4-3.1C24,64,23,65.2,23,67c0,1.8,1,3,2.3,3C26.7,70.1,27.7,68.9,27.7,67z"/>
	<path class="st0" d="M37.3,60.5c-0.3-0.1-0.6-0.2-0.9-0.2c-0.8,0-1.1,0.5-1.1,1.6v1.3H37v1h-1.7v6.7h-1.2v-6.7h-1.1v-0.9l1.1-0.1
		v-1.3c0-1.6,0.7-2.5,2.2-2.5c0.4,0,0.9,0.1,1.2,0.3L37.3,60.5z"/>
	<path class="st0" d="M41.7,68.6v-4.4h-1.2v-0.9l1.2-0.1l0.1-2.2h1v2.2H45v1h-2.1v4.5c0,0.9,0.3,1.5,1.2,1.5c0.3,0,0.6-0.1,0.9-0.2
		l0.2,0.9c-0.4,0.1-0.9,0.3-1.4,0.3C42.2,71.1,41.7,70.1,41.7,68.6z"/>
	<path class="st0" d="M48.8,63.2H50l1.2,4.6c0.2,0.7,0.3,1.4,0.5,2.1h0.1c0.2-0.7,0.3-1.4,0.5-2.1l1.2-4.6h1.2l1.3,4.6
		c0.2,0.7,0.4,1.4,0.5,2.1h0.1c0.2-0.7,0.3-1.4,0.5-2.1l1.2-4.6h1.1l-2.1,7.7h-1.4l-1.2-4.3c-0.2-0.7-0.4-1.4-0.5-2.2H54
		c-0.2,0.8-0.3,1.5-0.6,2.2l-1.1,4.3h-1.4L48.8,63.2z"/>
	<path class="st0" d="M63.3,68.9c0-1.7,1.5-2.5,4.8-2.9c0-1-0.3-2.1-1.6-2.1c-0.9,0-1.8,0.4-2.3,0.9L63.7,64c0.7-0.4,1.8-1,3-1
		c1.9,0,2.6,1.3,2.6,3.1v4.8h-1l-0.1-0.9h0c-0.7,0.6-1.6,1.1-2.6,1.1C64.3,71.1,63.3,70.3,63.3,68.9z M68.1,69.1v-2.3
		c-2.7,0.3-3.6,1-3.6,2c0,0.9,0.6,1.3,1.4,1.3C66.7,70.1,67.3,69.7,68.1,69.1z"/>
	<path class="st0" d="M74.8,63.2h0.9l0.1,1.4h0c0.5-1,1.3-1.6,2.2-1.6c0.3,0,0.6,0,0.8,0.2l-0.2,1c-0.3-0.1-0.4-0.1-0.7-0.1
		c-0.7,0-1.5,0.5-2,1.8v5h-1.2V63.2z"/>
	<path class="st0" d="M82.4,67c0-2.5,1.7-4.1,3.4-4.1c1.9,0,3,1.4,3,3.6c0,0.3,0,0.5-0.1,0.7h-5.3c0.1,1.7,1.1,2.9,2.6,2.9
		c0.8,0,1.4-0.2,2-0.6l0.4,0.8c-0.7,0.4-1.5,0.8-2.5,0.8C84.1,71.1,82.4,69.6,82.4,67z M87.9,66.4c0-1.7-0.7-2.5-2-2.5
		c-1.1,0-2.2,0.9-2.3,2.5H87.9z"/>
</g>
</svg>
