<svg width="50" height="50" xmlns="http://www.w3.org/2000/svg" xmlns:xlink="http://www.w3.org/1999/xlink"><defs><filter x="-5.7%" y="-8.7%" width="112.4%" height="117.4%" filterUnits="objectBoundingBox" id="a"><feOffset dx="2" in="SourceAlpha" result="shadowOffsetOuter1"/><feGaussianBlur stdDeviation="7.5" in="shadowOffsetOuter1" result="shadowBlurOuter1"/><feColorMatrix values="0 0 0 0 0 0 0 0 0 0 0 0 0 0 0 0 0 0 0.15 0" in="shadowBlurOuter1"/></filter><path d="M2 0h327.586a1 1 0 01.707.293l49.414 49.414a1 1 0 01.293.707V268a2 2 0 01-2 2H2a2 2 0 01-2-2V2a2 2 0 012-2z" id="b"/></defs><g transform="translate(-330)" fill="none" fill-rule="evenodd"><rect fill="#FFF" width="380" height="270" rx="2"/><path d="M366.833 10.833v2.334h2.334v-2.334h-2.334zm-7 16.334h2.334V29.5h-2.334v-2.333zm9.334-9.334h2.333v2.334h-2.333v-2.334zm-9.334 4.667h2.334v2.333h-2.334V22.5zm4.667-4.667h2.333v2.334H364.5v-2.334zM351.667 8.5H361c.644 0 1.167.522 1.167 1.167V19c0 .644-.523 1.167-1.167 1.167h-9.333A1.167 1.167 0 01350.5 19V9.667c0-.645.522-1.167 1.167-1.167zm1.166 2.333v7h7v-7h-7zm2.334 2.334h2.333V15.5h-2.333v-2.333zm10.5-4.667h4.666c.645 0 1.167.522 1.167 1.167v4.666c0 .645-.522 1.167-1.167 1.167h-4.666a1.167 1.167 0 01-1.167-1.167V9.667c0-.645.522-1.167 1.167-1.167zm0 14h4.666c.645 0 1.167.522 1.167 1.167v4.666c0 .645-.522 1.167-1.167 1.167h-4.666a1.167 1.167 0 01-1.167-1.167v-4.666c0-.645.522-1.167 1.167-1.167zm1.166 2.333v2.334h2.334v-2.334h-2.334zM351.667 22.5h4.666c.645 0 1.167.522 1.167 1.167v4.666c0 .645-.522 1.167-1.167 1.167h-4.666a1.167 1.167 0 01-1.167-1.167v-4.666c0-.645.522-1.167 1.167-1.167zm1.166 2.333v2.334h2.334v-2.334h-2.334z" opacity=".5" fill="#000" fill-opacity=".9"/><use fill="#000" filter="url(#a)" xlink:href="#b"/><use fill="#FFF" xlink:href="#b"/></g></svg>