<?xml version="1.0" standalone="no"?>
<!DOCTYPE svg PUBLIC "-//W3C//DTD SVG 1.1//EN" "http://www.w3.org/Graphics/SVG/1.1/DTD/svg11.dtd" >
<!--
2013-9-30: Created.
-->
<svg>
<metadata>
Created by iconfont
</metadata>
<defs>

<font id="iconfont" horiz-adv-x="1024" >
  <font-face
    font-family="iconfont"
    font-weight="500"
    font-stretch="normal"
    units-per-em="1024"
    ascent="896"
    descent="-128"
  />
    <missing-glyph />
    
    <glyph glyph-name="icon-eye-close" unicode="&#58956;" d="M928.312889 628.522667C792.078222 459.093333 655.957333 376.888889 519.651556 376.888889c-136.832 0-278.584889 82.773333-425.031112 252.913778a49.777778 49.777778 0 1 1-75.463111-64.938667C182.826667 374.712889 349.596444 277.333333 519.637333 277.333333c170.609778 0 332.785778 97.934222 486.257778 288.810667a49.777778 49.777778 0 0 1-77.582222 62.378667zM162.730667 426.552889l-94.819556-109.710222a35.555556 35.555556 0 1 1 53.802667-46.506667l94.819555 109.710222a35.555556 35.555556 0 0 1-53.802666 46.506667zM354.247111 297.813333l-37.930667-151.708444a35.555556 35.555556 0 0 1 68.992-17.251556l37.930667 151.708445a35.555556 35.555556 0 0 1-68.992 17.251555zM629.575111 291.612444l53.333333-151.694222a35.555556 35.555556 0 0 1 67.072 23.580445l-53.333333 151.694222a35.555556 35.555556 0 0 1-67.072-23.580445zM823.111111 420.835556l109.710222-109.724445a35.555556 35.555556 0 0 1 50.289778 50.289778l-109.710222 109.710222a35.555556 35.555556 0 0 1-50.289778-50.289778z"  horiz-adv-x="1024" />

    
    <glyph glyph-name="icon-eye-open" unicode="&#58954;" d="M518.826667 132.266667c-98.190222 0-177.777778 79.587556-177.777778 177.777777s79.587556 177.777778 177.777778 177.777778 177.777778-79.587556 177.777777-177.777778-79.587556-177.777778-177.777777-177.777777z m0 99.555555a78.222222 78.222222 0 1 1 0 156.444445 78.222222 78.222222 0 0 1 0-156.444445zM522.467556 81.479111c124.529778 0 249.287111 73.244444 374.357333 224.199111-109.155556 151.054222-233.244444 224.241778-374.357333 224.241778-141.255111 0-269.909333-73.329778-387.569778-224.284444 133.575111-150.798222 262.869333-224.156444 387.569778-224.156445z m373.063111 380.344889c36.750222-37.432889 71.68-81.038222 104.803555-130.744889l19.911111-29.880889-22.087111-28.330666C848.284444 80.682667 689.706667-18.062222 522.467556-18.062222c-166.684444 0-329.742222 98.176-489.571556 289.664L8.149333 301.226667l22.570667 31.331555c44.743111 62.122667 91.818667 114.673778 141.169778 157.482667l-84.337778 89.827555a35.555556 35.555556 0 1 0 51.84 48.668445l88.789333-94.577778c51.342222 35.726222 104.96 61.525333 160.768 77.226667l-43.079111 101.674666a35.555556 35.555556 0 1 0 65.479111 27.733334l48.739556-115.000889a499.527111 499.527111 0 0 0 62.378667 3.868444c36.508444 0 72.007111-3.882667 106.481777-11.619555l56.945778 125.297778a35.555556 35.555556 0 0 0 64.739556-29.44l-53.105778-116.821334c51.043556-19.911111 99.612444-48.938667 145.621333-86.897778l103.936 103.950223a35.555556 35.555556 0 0 0 50.289778-50.289778l-101.831111-101.831111z"  horiz-adv-x="1024" />

    
    <glyph glyph-name="huojian" unicode="&#58953;" d="M912 768c0-81.3-12.4-151.7-37-210.9-24.6-59.2-66-118.2-124.2-176.6-26.5-26.2-58.3-54.9-95.5-86.2l-9.8-185.7c-0.6-5.3-3.3-9.5-7.8-12.8L449.6-13.700000000000045c-2.3-1.3-4.9-2-7.8-2-3.9 0-7.7 1.4-11.2 4.4L399.3 20c-4.2 4.5-5.6 9.8-3.9 15.7l41.5 135.1-137.8 137.7L164 266.9c-1-0.3-2.5-0.5-4.4-0.5-4.5 0-8.3 1.4-11.2 4.4L117 302.1c-5.6 6.2-6.4 12.6-2.5 19.1l109.7 188.1c3.3 4.5 7.5 7.2 12.8 7.8l185.7 9.8c31.3 37.2 60.1 69 86.2 95.5 61.4 61.1 119.8 103.2 175.4 126.4 55.5 23.2 125.9 34.9 211.1 34.9 4.5 0 8.4-1.5 11.7-4.6 3.2-3.2 4.9-6.9 4.9-11.1zM788.5 593.6c9.2 9.2 13.7 20.3 13.7 33.3 0 13.1-4.5 24.2-13.7 33.3-9.2 9.2-20.3 13.7-33.3 13.7-13.1 0-24.2-4.5-33.3-13.7-9.2-9.2-13.7-20.3-13.7-33.3 0-13.1 4.5-24.2 13.7-33.3 9.2-9.2 20.3-13.7 33.3-13.7s24.2 4.6 33.3 13.7z"  horiz-adv-x="1024" />

    
    <glyph glyph-name="jurassic_transform" unicode="&#59089;" d="M160 590.3h658.4L667.9 450.2l34.9-37.6L928 622.3 702.8 832l-34.9-37.6 150.4-140H96v-359.2h64zM864 177.70000000000005H205.6l150.5 140.1-34.9 37.6L96 145.70000000000005 321.2-64l34.9 37.6-150.4 140H928V471.8h-64z"  horiz-adv-x="1024" />

    
    <glyph glyph-name="yiban1" unicode="&#58952;" d="M301.568 650.5984c-32.5632 0-59.1872 27.2896-59.1872 60.672V812.3392C242.3808 845.6704 269.0048 872.96 301.568 872.96c32.5632 0 59.2384-27.2896 59.2384-60.6208v-101.0688c0-33.3824-26.6752-60.672-59.2384-60.672z m415.0784 0c-32.6144 0-59.2384 27.2896-59.2384 60.672V812.3392c0 33.3312 26.624 60.6208 59.2384 60.6208 32.5632 0 59.2384-27.2896 59.2384-60.6208v-101.0688c0-33.3824-26.624-60.672-59.2384-60.672zM895.0784 828.4672H123.1872C90.9824 828.4672 64.512 800.6656 64.512 766.976v-810.1888c0-34.304 26.4704-62.0544 59.136-62.0544h770.9184c32.6656 0 59.136 27.8016 59.136 62.0544V766.976c-0.4608 33.792-26.4704 61.5424-58.624 61.5424z m-139.0592-474.8288l-253.952-266.752a36.864 36.864 0 0 0-53.504 0L288.256 255.2832a41.3184 41.3184 0 0 0 0 56.1152 36.864 36.864 0 0 0 53.4528 0l133.8368-140.544 227.4816 238.8992a36.864 36.864 0 0 0 53.4528 0c14.336-15.872 14.08-40.448-0.512-56.1152z m121.088 368.5376c-0.512-11.4176-0.512-27.2896-0.9728-46.6944-0.512-16.384-0.512-32.768-0.512-45.6704H140.7488V742.5536a6.656 6.656 0 0 0 1.9968 4.608 6.3488 6.3488 0 0 0 4.608 1.8432H870.912c3.7376 0 6.6048-2.9696 6.6048-6.4512-0.512-5.9392-0.512-13.4144-0.512-20.3776z"  horiz-adv-x="1024" />

    
    <glyph glyph-name="virtual-add" unicode="&#59529;" d="M204.8-25.600000000000023h102.4v-102.4H204.8zM0 691.2h102.4v-102.4H0zM0 486.4h102.4v-102.4H0zM204.8 896H0v-102.4h204.8V896zM716.8 896h102.4v-102.4h-102.4zM512 896h102.4v-102.4h-102.4zM0-25.600000000000023v-102.4h102.4v204.8H0v-102.4zM307.2 896h102.4v-102.4H307.2zM0 281.6h102.4v-102.4H0zM921.6 384h102.4v-102.4h-102.4zM921.6 179.20000000000005h102.4v-102.4h-102.4zM921.6 896v-204.8h102.4V896h-102.4zM921.6 588.8h102.4v-102.4h-102.4zM409.6-25.600000000000023h102.4v-102.4H409.6zM819.2-25.600000000000023v-102.4h204.8v102.4h-204.8zM614.4-25.600000000000023h102.4v-102.4h-102.4zM819.2 332.79999999999995V435.2h-256V691.2H460.8v-256H204.8v-102.4h256v-256h102.4v256h256z"  horiz-adv-x="1024" />

    
    <glyph glyph-name="virtual-dot" unicode="&#58950;" d="M127.045251 660.240676c-62.631527 0-113.042268 52.447539-113.042267 117.625062S64.922924 895.490801 127.045251 895.490801c62.631527 0 113.042268-52.447539 113.042268-117.625063 0-64.668324-50.410741-117.115863-113.042268-117.625062zM127.045251 268.666335c-62.631527 0-113.042268 52.447539-113.042267 117.625062s50.91994 117.625062 113.042267 117.625062c62.631527 0 113.042268-52.447539 113.042268-117.625062s-50.410741-117.625062-113.042268-117.625062zM127.045251-122.908006c-62.631527 0-113.042268 52.447539-113.042267 117.625062 0 64.668324 50.91994 117.625062 113.042267 117.625062 62.631527 0 113.042268-52.447539 113.042268-117.625062s-50.410741-117.625062-113.042268-117.625062zM512 660.749876c-62.631527 0-113.042268 52.447539-113.042268 117.625062C398.957732 843.043262 449.877673 896 512 896c62.631527 0 113.042268-52.447539 113.042268-117.625062s-50.410741-117.625062-113.042268-117.625062zM512 268.666335c-62.631527 0-113.042268 52.447539-113.042268 117.625062s50.91994 117.625062 113.042268 117.625062c62.631527 0 113.042268-52.447539 113.042268-117.625062s-50.410741-117.625062-113.042268-117.625062zM512-122.908006c-62.631527 0-113.042268 52.447539-113.042268 117.625062 0 64.668324 50.91994 117.625062 113.042268 117.625062 62.631527 0 113.042268-52.447539 113.042268-117.625062s-50.410741-117.625062-113.042268-117.625062zM896.954749 655.657882c-62.631527 0-113.042268 52.447539-113.042268 117.625062 0 64.668324 50.410741 117.625062 113.042268 117.625062 62.631527 0 113.042268-52.447539 113.042267-117.625062s-50.410741-117.625062-113.042267-117.625062zM896.954749 263.574341c-62.631527 0-113.042268 52.447539-113.042268 117.625062s50.410741 117.625062 113.042268 117.625062c62.631527 0 113.042268-52.447539 113.042267-117.625062s-50.410741-117.625062-113.042267-117.625062zM896.954749-128c-62.631527 0-113.042268 52.447539-113.042268 117.625062 0 64.668324 50.410741 117.625062 113.042268 117.625062 62.631527 0 113.042268-52.447539 113.042267-117.625062s-50.410741-117.625062-113.042267-117.625062z"  horiz-adv-x="1024" />

    
    <glyph glyph-name="dingding" unicode="&#58949;" d="M512.06 383.95000000000005m-448.05 0a448.05 448.05 0 1 1 896.1 0 448.05 448.05 0 1 1-896.1 0ZM451.85 482.75c-34.33 12.43-66 25.19-98.43 35.24-28.66 8.87-45.91 26.89-56 54.47-8.83 24.1-16.19 48.45-18.87 73.91-2.77 26.42 5.8 33.08 30 22.95 37.31-15.61 74.2-32.26 111.23-48.55C498 586.38 578.45 558.11 659 529.95c22.45-7.85 44.63-16.62 63.95-30.83 24.31-17.88 29-34.23 16.29-61.69-20.68-44.79-47-86.49-72.22-128.8-4.34-7.29-13.22-14.33-8.75-23.43 4.66-9.49 15.62-5.43 24-6.21 6.11-0.57 12.31-0.17 18.45-0.55 13.32-0.83 18.4-6.93 9.71-18.57q-62-83.1-124.56-165.78l-7.08 2.71c6.6 27.43 13.15 54.87 19.83 82.28 7.8 32 7.9 32.76-23.74 34.74-18.81 1.18-23.81 8.61-21 27 2.67 17.44 19.2 38.73 4.21 51.56-12.64 10.82-32.72-5.5-49.74-8.63-34.94-6.43-99.4 29.63-111.12 62.4-5.52 15.44 3.58 21.57 16 24 19.71 3.94 39.69 6.55 59.7 12.19l-63.68 4.82c-44.13 3.31-93.83 55.09-95 98.79-0.49 18.82 11.84 19.65 24.95 16.92 28.4-5.92 56.53-13.16 84.9-19.22 8.02-1.65 16.18-6.46 27.75-0.9z"  horiz-adv-x="1024" />

    
    <glyph glyph-name="qiyeweixinlogo" unicode="&#59042;" d="M683.569665 125.742504l0.902998-0.902998c0.451499-0.451499 1.354497-0.902998 1.805997-1.354497l3.611993-3.611993c23.477954-23.477954 38.377425-52.373898 44.246913-82.624339 0-1.805996 0.451499-3.611993 0.451499-4.96649l1.354498-5.417989c2.257496-8.578483 6.772487-16.705467 13.544973-23.026455 20.31746-20.31746 53.728395-20.31746 74.045856 0 20.31746 20.31746 20.31746 53.728395 0 74.045855-7.223986 7.223986-15.802469 11.738977-25.283951 13.996473-0.902998 0.451499-2.257496 0.451499-3.160494 0.451499-0.902998 0-2.257496 0.451499-3.160494 0.451499-31.153439 5.869489-60.500882 20.768959-84.430335 44.698412-1.805996 1.805996-3.611993 3.611993-4.96649 5.41799-4.96649 4.96649-12.641975 4.96649-17.608466 0s-4.96649-12.190476-1.354497-17.156967zM849.269841 85.559083l0.902999 0.902998c0.451499 0.451499 0.902998 1.354497 1.354497 1.805997l3.611993 3.611993c23.477954 23.477954 52.373898 38.377425 82.624338 44.246913 1.805996 0 3.611993 0.451499 4.966491 0.451499l5.417989 1.354498c8.578483 2.257496 16.705467 6.772487 23.026455 13.544973 20.31746 20.31746 20.31746 53.728395 0 74.045856s-53.728395 20.31746-74.045855 0c-7.223986-7.223986-11.738977-15.802469-13.996473-25.283951-0.451499-0.902998-0.451499-2.257496-0.451499-3.160494 0-0.902998-0.451499-2.257496-0.451499-3.160494-5.869489-31.153439-20.768959-60.500882-44.698413-84.430335-1.805996-1.805996-3.611993-3.611993-5.417989-4.96649-4.96649-4.96649-4.96649-12.641975 0-17.608466 4.96649-5.417989 12.190476-5.417989 17.156966-1.354497zM889.904762 250.80776l-0.902998 0.902998c-0.451499 0.451499-1.354497 0.902998-1.805997 1.354498l-3.611993 3.611993c-23.477954 23.477954-38.377425 52.373898-44.246913 82.624338 0 1.805996-0.451499 3.611993-0.451499 4.966491l-1.354498 5.417989c-2.257496 8.578483-6.772487 16.705467-13.544973 23.026455-20.31746 20.31746-53.728395 20.31746-74.045856 0-20.31746-20.31746-20.31746-53.728395 0-74.045855 7.223986-7.223986 15.802469-11.738977 25.283951-13.996473 0.902998-0.451499 2.257496-0.451499 3.160494-0.451499 0.902998 0 2.257496-0.451499 3.160494-0.451499 31.153439-5.869489 60.500882-20.768959 84.430335-44.698413 1.805996-1.805996 3.611993-3.611993 4.96649-5.417989 4.96649-4.96649 12.641975-4.96649 17.608466 0 4.96649 5.417989 4.96649 12.641975 1.354497 17.156966zM724.204586 291.442681l-0.902999-0.902998c-0.451499-0.451499-0.902998-1.354497-1.354497-1.805997l-3.611993-3.611993c-23.477954-23.477954-52.373898-38.377425-82.624339-44.246913-1.805996 0-3.611993-0.451499-4.96649-0.4515l-5.417989-1.354497c-8.578483-2.257496-16.705467-6.772487-23.026455-13.544973-20.31746-20.31746-20.31746-53.728395 0-74.045856 20.31746-20.31746 53.728395-20.31746 74.045855 0 7.223986 7.223986 11.738977 15.802469 13.996473 25.283951 0.451499 0.902998 0.451499 2.257496 0.451499 3.160494 0 0.902998 0.451499 2.257496 0.451499 3.160493 5.869489 31.153439 20.768959 60.500882 44.698413 84.430336 1.805996 1.805996 3.611993 3.611993 5.417989 4.96649 4.96649 4.96649 4.96649 12.641975 0 17.608465s-12.190476 4.96649-17.156966 1.354498zM801.862434 547.442681c-14.447972 29.798942-34.313933 57.791887-58.243386 82.624338-60.952381 62.758377-145.834215 103.393298-239.294533 113.777778-16.705467 1.805996-33.410935 2.708995-49.664903 2.708995-15.35097 0-31.153439-0.902998-47.407407-2.708995C313.340388 733.460317 227.555556 693.276896 166.603175 630.518519c-23.929453-24.832451-43.795414-52.373898-58.694886-82.624339-19.865961-40.634921-29.798942-83.527337-29.798942-127.774251 0-56.888889 17.156966-113.326279 50.116403-162.539682 18.511464-27.992945 50.116402-64.112875 77.657848-86.236332l-14.899471-62.306878-4.514991-17.608466c-0.902998-1.805996-1.354497-3.611993-1.805997-5.417989-0.451499-1.354497-0.451499-2.257496-0.451499-3.611993 0-0.902998-0.451499-1.805996-0.451499-2.708995 0-15.802469 13.093474-28.895944 28.895944-28.895943 5.417989 0 9.932981 1.354497 14.447971 4.063492h0.4515c0.451499 0.451499 1.354497 0.902998 1.805996 0.902998l107.45679 54.179894c23.026455-6.772487 46.05291-10.835979 70.433863-13.544973 15.802469-1.805996 31.604938-2.708995 47.407407-2.708995 16.253968 0 32.959436 0.902998 49.664903 2.708995 32.959436 3.611993 65.015873 11.287478 94.814815 22.123457-3.160494 0.902998-6.320988 2.708995-9.481482 4.063492-18.511464 10.38448-27.992945 30.70194-26.186949 50.567901-21.671958-6.772487-44.246914-11.738977-67.273368-14.447972-13.996473-1.805996-27.992945-2.257496-41.537919-2.257496-13.093474 0-26.638448 0.902998-39.731922 2.257496-2.708995 0.451499-5.417989 0.902998-8.126985 0.902998-18.059965 2.257496-36.119929 6.320988-53.276895 11.287478-3.611993 0.902998-7.223986 1.805996-11.287478 1.805997-5.869489 0-11.738977-1.354497-17.608466-4.514991-0.902998-0.451499-1.354497-0.902998-2.257496-1.354498l-69.079365-40.63492c-1.354497-0.902998-2.257496-1.354497-3.160494-1.354498-2.257496 0-4.514991 2.257496-4.514991 4.514991l2.708995 10.38448c0.902998 2.708995 1.805996 6.320988 3.160494 11.287478 3.160494 11.287478 7.223986 27.089947 10.38448 38.828924 0.451499 2.257496 1.354497 5.417989 1.354497 8.578483 0 9.029982-4.063492 17.156966-11.287478 22.574956-3.611993 2.708995-7.223986 5.417989-10.835979 8.578484-5.869489 4.514991-11.287478 9.481481-16.705467 14.89947-14.899471 13.996473-27.992945 29.798942-39.280424 46.50441-26.186949 39.280423-39.731922 83.527337-39.731922 128.225749 0 34.765432 8.126984 68.627866 23.477954 100.684304C180.599647 543.830688 196.402116 565.954145 215.816578 585.820106 265.932981 637.742504 336.818342 670.70194 414.92769 679.280423c13.544974 1.354497 27.089947 2.257496 39.731922 2.257496 13.544974 0 27.541446-0.902998 41.537919-2.257496 77.657848-9.029982 148.091711-41.989418 198.208113-93.911816 19.414462-19.865961 35.216931-42.440917 46.504409-66.370371 15.35097-31.604938 23.477954-65.467372 23.477954-99.781305 0-3.611993-0.451499-7.223986-0.451499-10.835979 20.31746 12.190476 46.955908 9.932981 64.112875-7.675485 0.902998-0.902998 1.805996-1.805996 2.257495-2.708994 0.451499 7.223986 0.902998 14.899471 0.902999 22.123456 0.451499 44.246914-9.481481 86.687831-29.347443 127.322752z"  horiz-adv-x="1024" />

    
    <glyph glyph-name="gongshidengji" unicode="&#59237;" d="M667.8 304.8c0 18.8-15.3 34.1-34.1 34.1H303.1c-18.8 0-34.1-15.3-34.1-34.1s15.3-34.1 34.1-34.1h330.7c18.8 0.1 34 15.3 34 34.1z m-364.7-101c-18.8 0.2-34.3-14.8-34.5-33.7-0.2-18.8 14.8-34.3 33.7-34.5H516.5c18.8 0 34 15.2 34 34v0.1c0 18.8-15.3 34.1-34.1 34.1H303.1z m407.5 233.1c0 18.8-15.3 34.1-34.1 34.1H303.1c-18.8 0.2-34.3-14.8-34.5-33.7-0.2-18.8 14.8-34.3 33.7-34.5H676.7c18.7 0.1 33.9 15.3 33.9 34.1zM497 17.8H195.2c-7.8 0-14.4 5.1-14.4 11V607c0 6 6.6 11 14.4 11h88.4c3-34.9 32.2-61.7 67.2-61.8H643c35 0 64.2 26.9 67.1 61.8h78.6c7.8 0 14.4-5.1 14.4-11v-234.6c-0.2-18.8 14.8-34.3 33.7-34.5 18.8-0.2 34.3 14.8 34.5 33.7V607c0 43.7-37.1 79.2-82.6 79.2h-78.8c-4.3 33.6-33 58.9-66.9 58.9h-32.3C593.7 808 529 845.2 466.1 828.2c-40.5-10.9-72.2-42.6-83.1-83.1h-32.3c-33.9-0.1-62.5-25.3-66.9-58.9h-88.7c-45.5 0-82.5-35.5-82.5-79.2v-578.3c0-43.7 37-79.2 82.5-79.2H497c18.8 0 34.1 15.2 34.1 34.1 0 18.9-15.3 34.2-34.1 34.2zM447.4 713l-0.1 2c0.3 27.5 22.8 49.5 50.2 49.2 27.1-0.3 49-22.2 49.2-49.2l-0.2-2.9c-0.6-18.8 14.2-34.6 33-35.2h62.9v-52.5h-291v52.5h61.9c18.8 0 34.1 15.3 34.1 34.1v2z m462.1-490.7c-1.6 13.5-8.6 25.7-19.3 34.1l-90.7 69.5c-10.8 8.2-24.4 11.7-37.9 9.8-16.2-2.4-30.9-11-40.8-24.1L577.7 124.7c-8.2-10.5-12.8-23.3-13.3-36.6l-2.7-97.4c-0.8-16.8 6.7-32.9 20-43.2 8.9-6.7 19.7-10.3 30.8-10.2 5.4 0 10.8 0.8 16 2.4l93.3 27.9c12.7 3.9 23.8 11.7 31.9 22.3l143.1 186.8c10 13 14.6 29.3 12.7 45.6zM700.1 32.2l-69.6-20.8 2 72.7 134.8 172.1 67.6-51.8-134.8-172.2z"  horiz-adv-x="1024" />

    
    <glyph glyph-name="xinjianyonghu" unicode="&#59165;" d="M578.56-66.56H56.32V0c0 199.68 153.6 363.52 353.28 384h40.96c35.84 5.12 107.52 10.24 138.24 40.96l15.36 15.36C665.6 486.4 706.56 563.2 706.56 640c0 66.56-25.6 133.12-76.8 179.2C578.56 865.28 517.12 896 445.44 896 302.08 896 184.32 778.24 184.32 640c0-76.8 35.84-153.6 102.4-199.68l25.6-20.48-30.72-10.24C112.64 343.04 0 179.2 0 0v-92.16c0-15.36 10.24-25.6 25.6-25.6h552.96v51.2zM240.64 640v15.36c10.24 102.4 97.28 184.32 204.8 184.32 112.64 0 204.8-92.16 204.8-199.68 0-112.64-92.16-199.68-204.8-199.68S240.64 532.48 240.64 640zM1024 128H819.2V332.8H768V128H563.2v-51.2H768V-128h51.2V76.8H1024z"  horiz-adv-x="1024" />

    
    <glyph glyph-name="shouqian" unicode="&#58948;" d="M1157.281684 203.533474a220.052211 220.052211 0 0 1-49.313684 112.047158 32.848842 32.848842 0 0 1-58.260211-7.410527c-4.042105-11.722105-1.104842-24.710737 7.626106-33.549473a153.195789 153.195789 0 0 0 34.869894-78.794106 164.783158 164.783158 0 0 0-40.528842-126.113684c-5.685895-6.871579-8.299789-15.737263-7.275789-24.522105l11.075368-87.417263-91.055158 37.26821a33.199158 33.199158 0 0 1-23.282526 0.727579c-18.674526-6.440421-37.968842-10.940632-57.559579-13.473684a269.258105 269.258105 0 0 0-161.306947 28.429474 32.902737 32.902737 0 0 1-44.544-12.934737 32.552421 32.552421 0 0 1 13.015579-44.301474 335.36 335.36 0 0 1 201.10821-36.028631c19.779368 2.425263 39.316211 6.521263 58.394948 12.261052l131.853473-55.161263c10.805895-4.527158 23.228632-2.964211 32.552421 4.096s14.174316 18.539789 12.665264 30.100211l-16.49179 129.913263a226.142316 226.142316 0 0 1 46.457263 164.864zM1050.947368 462.228211C1050.947368 701.44 815.265684 896 525.419789 896 235.52 896 0 701.332211 0 462.228211c0-101.914947 43.546947-200.272842 123.418947-278.366316v-252.308211c-0.080842-11.641263 6.197895-22.420211 16.384-28.267789a33.145263 33.145263 0 0 1 32.956632 0.080842l237.406316 135.976421c37.995789-7.194947 76.557474-10.886737 115.253894-10.994526C815.265684 28.456421 1050.947368 223.016421 1050.947368 462.228211zM525.527579 93.399579a566.622316 566.622316 0 0 0-114.256842 12.207158 33.387789 33.387789 0 0 1-23.066948-3.664842L188.631579-12.180211v209.812211c0 8.973474-3.745684 17.515789-10.34779 23.686737-72.677053 66.748632-112.64 152.198737-112.64 240.909474 0 203.344842 206.282105 368.828632 459.722106 368.828631 253.466947 0 459.910737-165.483789 459.910737-368.828631 0-203.317895-206.309053-368.828632-459.776-368.828632zM188.631579 451.368421a67.368421 67.368421 0 1 1 134.736842 0 67.368421 67.368421 0 0 1-134.736842 0zM458.105263 451.368421a67.368421 67.368421 0 1 1 134.736842 0 67.368421 67.368421 0 0 1-134.736842 0zM727.578947 451.368421a67.368421 67.368421 0 1 1 134.736842 0 67.368421 67.368421 0 0 1-134.736842 0z"  horiz-adv-x="1158" />

    
    <glyph glyph-name="zonghepingtai" unicode="&#58941;" d="M507.82 318.75c-11.044 0-21.48 3.604-30.022 10.238L48.79 562.024a32.82 32.82 0 0 0-7.67 5.73c-19.194 19.2-19.01 50.612 0.444 70.042a32.852 32.852 0 0 0 8.576 6.206L487.294 864.25a49.676 49.676 0 0 0 30.384 10.302c10.618 0 20.72-3.348 29.084-9.53l428.862-203.758a33.214 33.214 0 0 0 9.298-6.552c9.318-9.334 14.552-22.286 14.302-35.56-0.264-12.994-5.48-25.232-14.746-34.482a32.226 32.226 0 0 0-7.096-5.408L539.028 329.71a49.656 49.656 0 0 0-31.208-10.96zM115.25 601.978l392.44-213.21L910.63 618.15 517.796 804.79 115.25 601.978zM504.906 175.634c-10.598 0-21.214 3.408-29.988 10.19L45.892 418.878c-16.196 8.812-22.204 29.098-13.396 45.322 8.804 16.218 29.066 22.21 45.312 13.404l426.986-231.966 442.632 248.568c16.048 9.134 36.458 3.52 45.588-12.51 9.122-16.024 3.526-36.432-12.504-45.56l-444.38-249.59a50.178 50.178 0 0 0-31.224-10.912zM504.906 32.194c-10.598 0-21.214 3.392-29.988 10.172L45.892 275.428c-16.196 8.824-22.204 29.1-13.396 45.328 8.804 16.214 29.066 22.22 45.312 13.414l426.986-231.958 442.632 248.55c16.048 9.12 36.458 3.524 45.588-12.51 9.122-16.046 3.526-36.44-12.504-45.574L536.13 43.122a49.992 49.992 0 0 0-31.224-10.928zM504.906-111.266c-10.598 0-21.214 3.408-29.988 10.19L45.892 132.002c-16.196 8.79-22.204 29.086-13.396 45.294 8.804 16.212 29.066 22.22 45.312 13.416L504.794-41.25l442.63 248.57c16.048 9.118 36.458 3.522 45.588-12.51 9.122-16.032 3.526-36.44-12.504-45.576L536.13-100.336a50.004 50.004 0 0 0-31.224-10.93z"  horiz-adv-x="1024" />

    
    <glyph glyph-name="gengduo1" unicode="&#58942;" d="M511.658217 747.943337c-204.318341 0-369.955562-165.637221-369.955562-369.956778 0-204.314692 165.637221-369.950697 369.955562-369.950697 204.314692 0 369.948264 165.637221 369.948264 369.950697 0 204.319557-165.634788 369.956778-369.948264 369.956778z m0-716.787837c-191.556807 0-346.831059 155.279117-346.831059 346.831059 0 191.558023 155.274252 346.833491 346.831059 346.833491 191.55559 0 346.833491-155.275468 346.833491-346.833491 0-191.551941-155.277901-346.831059-346.833491-346.831059z m0 0M338.242687 377.986559c0-19.154464 15.526209-34.68189 34.68189-34.68189 19.153248 0 34.680673 15.527425 34.680673 34.68189 0 19.156897-15.527425 34.687971-34.680673 34.687971-19.155681 0-34.68189-15.529858-34.68189-34.687971z m0 0M476.972678 377.986559c0-19.154464 15.526209-34.68189 34.685539-34.68189 19.154464 0 34.683106 15.527425 34.683106 34.68189 0 19.156897-15.528642 34.687971-34.683106 34.687971-19.15933 0-34.685538-15.529858-34.685539-34.687971z m0 0M615.707534 377.986559c0-19.154464 15.526209-34.68189 34.679457-34.68189 19.154464 0 34.687971 15.527425 34.687971 34.68189 0 19.156897-15.533507 34.687971-34.687971 34.687971-19.154464 0-34.679457-15.529858-34.679457-34.687971z m0 0"  horiz-adv-x="1024" />

    
    <glyph glyph-name="xinjiankehu" unicode="&#58943;" d="M478.720026 896a271.36 271.36 0 1 1 271.36-271.36A271.36 271.36 0 0 1 478.720026 896z m0-440.32a168.96 168.96 0 1 0 168.96 168.96 168.96 168.96 0 0 0-168.96-168.96zM617.216026 308.4288a50.5344 50.5344 0 0 1-21.4528 83.968A440.32 440.32 0 0 1 33.280026-30.72a434.176 434.176 0 0 1 3.1744-52.5824 51.2 51.2 0 0 1 50.7904-44.6976 51.2 51.2 0 0 1 50.7392 57.6 343.04 343.04 0 0 0-1.3312 65.28A337.92 337.92 0 0 0 565.760026 294.4512a50.8928 50.8928 0 0 1 50.6368 12.9536 9.216 9.216 0 0 0 0.8192 1.024zM939.520026 143.36h-117.76v117.76a51.2 51.2 0 0 1-102.4 0v-117.76h-117.76a51.2 51.2 0 0 1 0-102.4h117.76v-117.76a51.2 51.2 0 0 1 102.4 0v117.76h117.76a51.2 51.2 0 0 1 0 102.4z"  horiz-adv-x="1024" />

    
    <glyph glyph-name="xinjianhetong" unicode="&#58944;" d="M322.729858 677.611374h378.540284c13.588626 0 24.265403 10.676777 24.265403 24.265403s-10.676777 24.265403-24.265403 24.265403h-378.540284c-13.588626 0-24.265403-10.676777-24.265403-24.265403s10.676777-24.265403 24.265403-24.265403zM873.554502 726.14218c13.588626 0 24.265403 10.676777 24.265403 24.265403V837.763033c0 32.030332-26.206635 58.236967-58.236967 58.236967H184.417062C152.38673 896 126.180095 869.793365 126.180095 837.763033v-907.526066c0-32.030332 26.206635-58.236967 58.236967-58.236967h655.165876c32.030332 0 58.236967 26.206635 58.236967 58.236967V633.933649c0 13.588626-10.676777 24.265403-24.265403 24.265403s-24.265403-10.676777-24.265402-24.265403v-703.696682c0-5.338389-4.367773-9.706161-9.706162-9.706161H184.417062c-5.338389 0-9.706161 4.367773-9.706162 9.706161V837.763033c0 5.338389 4.367773 9.706161 9.706162 9.706161h655.165876c5.338389 0 9.706161-4.367773 9.706162-9.706161v-87.35545c0-13.588626 10.676777-24.265403 24.265402-24.265403zM322.729858 519.886256h378.540284c13.588626 0 24.265403 10.676777 24.265403 24.265403s-10.676777 24.265403-24.265403 24.265403h-378.540284c-13.588626 0-24.265403-10.676777-24.265403-24.265403s10.676777-24.265403 24.265403-24.265403zM322.729858 357.308057h247.507109c13.588626 0 24.265403 10.676777 24.265403 24.265403s-10.676777 24.265403-24.265403 24.265403h-247.507109c-13.588626 0-24.265403-10.676777-24.265403-24.265403s10.676777-24.265403 24.265403-24.265403zM703.211374 267.040758c-87.840758 25.721327-180.049289-24.750711-205.770616-112.106161-25.721327-87.840758 24.750711-180.049289 112.106161-205.770616S789.596209-26.085308 815.317536 61.270142c26.206635 87.840758-24.265403 180.049289-112.106162 205.770616z m71.340285-139.76872c-2.42654 1.941232-4.853081 3.397156-7.764929 4.367772l-58.236967 16.985782-3.882464 60.663508c0 3.397156-1.455924 6.794313-3.397157 9.706161 39.309953-16.015166 66.487204-51.442654 73.281517-91.723223z m-115.01801 7.764929l9.220853 13.588625 0.970616-16.500474c0.485308-8.250237 6.309005-15.529858 14.073934-17.956398l16.015166-4.367772-15.529858-5.823697c-7.764929-2.911848-12.618009-10.676777-12.618009-18.927014l0.485308-16.500474-10.676777 12.61801c-5.338389 6.309005-14.073934 8.735545-21.838863 5.823696l-15.529858-5.823696 8.735545 14.073933c4.367773 7.279621 3.882464 16.015166-0.970616 22.809479l-10.191469 13.103317 16.015166-4.367772c8.250237-1.941232 16.985782 1.455924 21.838862 8.250237z m16.985782 90.752606c-2.911848-1.455924-5.823697-3.882464-7.764929-6.794312l-33.971564-50.472038-58.722274 15.04455c-3.882464 0.970616-8.250237 0.970616-12.132702-0.485309 26.206635 33.000948 69.399052 50.472038 112.591469 42.707109zM556.648341 41.85782c-18.927014 28.633175-25.236019 64.545972-15.04455 99.97346 2.42654 8.250237 5.338389 15.529858 9.220854 22.809478 0-4.367773 1.455924-8.250237 4.367772-11.647393L592.075829 104.947867l-32.515639-51.442654c-2.42654-3.397156-3.397156-7.279621-2.911849-11.647393z m66.001896-48.530806c-20.382938 5.823697-37.36872 16.985782-51.442654 30.574408 3.882464-0.970616 7.764929-0.970616 12.132701 0.485308l57.266351 20.868246 38.824645-47.074881c2.42654-2.911848 5.338389-4.853081 8.250237-5.823697-21.353555-5.338389-43.192417-5.823697-65.03128 0.970616z m89.296682 8.735545c1.455924 2.911848 1.941232 6.309005 1.941233 9.220853l-1.941233 60.663507 56.295735 22.324171c2.911848 0.970616 5.338389 2.911848 7.279621 4.853081-0.485308-8.250237-1.941232-16.985782-4.367773-25.236019-9.706161-32.030332-31.545024-57.266351-59.207583-71.825593z"  horiz-adv-x="1024" />

    
    <glyph glyph-name="xinjianxiangmu" unicode="&#58945;" d="M246.550858 701.57555h457.829647v-57.270672H246.550858zM244.595756 572.064838h457.829647v-57.270671H244.595756zM244.595756 443.166331h457.829647v-57.270672H244.595756zM228.974687 314.287571h228.904949v-57.270671H228.974687zM592.050995 122.667804h400.598472v-57.270671H592.050995zM761.730171 272.578724h57.270671v-400.578724h-57.270671zM869.774254 895.999605H95.83025A64.261643 64.261643 0 0 1 31.331625 831.994693v-895.989781a64.261643 64.261643 0 0 1 64.498625-63.985163h451.43113v63.985163H95.83025V831.994693h773.944004v-511.960306h64.478877V831.994693A64.261643 64.261643 0 0 1 869.774254 895.999605z"  horiz-adv-x="1024" />

    
    <glyph glyph-name="houtai" unicode="&#58946;" d="M971.264 896H52.736C24.064 896 0.512 872.96 0 843.776v-707.584c0-28.672 24.064-52.224 52.736-52.224h365.056v-158.72H309.76c-16.384 0-29.184-12.8-29.696-29.184 0-15.872 13.312-24.064 29.696-24.064h404.48c16.384 0 29.184 7.68 29.696 24.064v5.12c0 15.872-13.312 24.064-29.696 24.064h-108.544v158.72h365.056c29.184 0 52.736 23.04 52.736 52.224V843.776c0 29.184-23.552 52.224-52.224 52.224z m-415.232-969.728H467.968v161.792h88.064v-161.792z m418.816 207.872H49.664V851.968h925.184v-717.824zM276.992 496.64l64.512 64.512c9.216 9.216 9.216 24.576 0 33.792-9.216 9.216-24.576 9.216-33.792 0L226.816 514.048c-9.728-9.728-9.728-25.088 0-34.816l81.408-80.896c9.216-9.216 24.576-9.216 33.792 0 9.216 9.216 9.216 24.576 0 33.792L276.992 496.64z m177.664-109.568l-6.144 3.072c-11.264 6.656-15.36 20.48-9.216 32.256l96.256 168.96c6.656 11.264 20.992 15.36 32.256 8.704l6.144-3.072c11.264-6.656 15.36-20.48 9.216-32.256l-96.256-168.96c-6.144-10.752-20.48-15.36-32.256-8.704z m343.04 126.976l-81.92 81.408c-9.216 9.216-24.576 9.216-33.792 0-9.216-9.216-9.216-24.576 0-33.792l64.512-64.512-64.512-64.512c-9.216-9.216-9.216-24.576 0-33.792 9.728-9.728 24.576-9.728 33.792 0l81.92 80.896c4.608 4.608 7.168 10.752 7.168 17.408 0 6.656-2.56 12.8-7.168 16.896z"  horiz-adv-x="1024" />

    
    <glyph glyph-name="shouhouzhichi" unicode="&#58947;" d="M832.512 219.648h1.792c5.376 0 10.496-2.048 14.336-5.888 3.84-3.84 5.888-8.96 5.888-14.336v-202.496c0-11.008-8.96-19.968-19.968-19.968h-1.792c-11.008 0-19.968 8.96-19.968 19.968V199.68c-0.512 10.752 8.448 19.968 19.712 19.968z m122.112-120.576v-1.792c0-5.376-2.048-10.496-5.888-14.336-3.84-3.84-8.96-5.888-14.336-5.888h-202.496c-5.376 0-10.496 2.048-14.336 5.888-3.84 3.84-5.888 8.96-5.888 14.336v1.792c0 5.376 2.048 10.496 5.888 14.336 3.84 3.84 8.96 5.888 14.336 5.888H934.4c5.376 0 10.496-2.048 14.336-5.888 3.84-3.84 5.888-8.96 5.888-14.336z m-449.536 537.6c72.704 0 169.728-22.784 169.728-218.88 0-16.128 13.312-29.44 29.44-29.44s29.44 13.312 29.44 29.44c0 229.376-123.904 276.992-227.84 276.992s-227.84-48.128-227.84-276.992c0-97.024 44.544-190.464 113.92-243.2v-4.352c-154.112-22.016-252.416-84.992-252.416-162.816 0-16.128 13.312-29.44 29.44-29.44s29.44 13.312 29.44 29.44c0 41.216 84.736 93.184 226.56 108.8 14.592 1.28 25.856 14.336 25.856 28.928v45.056c0 9.984-5.376 18.944-13.312 24.576-60.16 39.168-100.864 121.088-100.864 203.264-0.768 196.608 95.488 218.624 168.448 218.624z m360.704-142.336l-36.864 9.472c-11.776 168.192-152.576 301.568-323.84 301.568-174.592 0-316.928-138.24-324.352-310.528l-21.76-18.432c-6.656-5.632-10.24-13.824-10.24-22.272v-115.456c0-16.128 13.312-29.44 29.44-29.44s29.44 13.312 29.44 29.44V440.32l21.76 17.92c6.656 5.632 10.24 13.824 10.24 22.272 0 147.2 119.552 266.24 266.24 266.24s266.24-119.552 266.24-266.24c0-13.312 8.96-25.088 22.272-28.416l36.352-8.96v-104.96c0-16.128 13.312-29.44 29.44-29.44s29.44 13.312 29.44 29.44V465.92c-1.536 13.824-10.496 25.856-23.808 28.416z m-109.312-119.04c-5.376-15.616-54.016-55.296-217.088-55.296-16.128 0-29.44-13.312-29.44-29.44s13.312-29.44 29.44-29.44c248.064 0 272.384 86.528 274.688 103.936l-28.928 3.584-28.672 6.656zM619.52 171.008v19.456c0 16.128-13.312 29.44-29.44 29.44s-29.44-13.312-29.44-29.44v-45.056c0-14.592 11.264-27.392 25.856-28.928 15.104-1.792 29.952-3.584 43.52-6.144v59.136c-2.816 0.256-6.912 0.512-10.496 1.536z m0 0M698.88 475.904s43.008-250.88-100.864-299.776c0 0 278.016-66.304 304.64-184.832 1.792-7.424-4.096-14.592-11.776-14.592l-725.504 1.536 56.832 107.008 110.848 38.912 97.024 25.088 2.048 23.04-14.08 26.88-34.048 26.88s212.992 84.992 314.88 249.856z"  horiz-adv-x="1024" />

    
    <glyph glyph-name="gengduo" unicode="&#58957;" d="M638.494118 384c0-24.094118 12.047059-42.164706 30.117647-54.211765 18.070588-12.047059 42.164706-12.047059 66.258823 0s30.117647 30.117647 30.117647 54.211765-12.047059 42.164706-30.117647 54.211765-42.164706 12.047059-66.258823 0c-18.070588-12.047059-30.117647-30.117647-30.117647-54.211765zM445.741176 384c0-36.141176 30.117647-66.258824 66.258824-66.258824s66.258824 30.117647 66.258824 66.258824c0 24.094118-12.047059 42.164706-30.117648 54.211765-18.070588 12.047059-42.164706 12.047059-66.258823 0s-36.141176-30.117647-36.141177-54.211765zM259.011765 384c0-24.094118 12.047059-42.164706 30.117647-54.211765 18.070588-12.047059 42.164706-12.047059 66.258823 0 18.070588 12.047059 30.117647 30.117647 30.117647 54.211765s-12.047059 42.164706-30.117647 54.211765c-18.070588 12.047059-42.164706 12.047059-66.258823 0-18.070588-12.047059-30.117647-30.117647-30.117647-54.211765zM512-128c-283.105882 0-512 228.894118-512 512s228.894118 512 512 512 512-228.894118 512-512-228.894118-512-512-512z m0 987.858824c-259.011765 0-475.858824-210.823529-475.858824-475.858824 0-259.011765 210.823529-475.858824 475.858824-475.858824 259.011765 0 475.858824 210.823529 475.858824 475.858824 0 259.011765-216.847059 475.858824-475.858824 475.858824z"  horiz-adv-x="1024" />

    
    <glyph glyph-name="chehui" unicode="&#58994;" d="M515.990069 729.335172c4.237241 0.141241 8.439172-0.105931 12.676414-0.105931V829.051586a34.180414 34.180414 0 0 0 53.31862 28.212966l358.929656-243.288276a34.074483 34.074483 0 0 0 0-56.425931l-358.929656-243.288276a34.145103 34.145103 0 0 0-53.353931 28.212965v100.916966c-172.950069 2.118621-316.733793-118.395586-323.725241-274.184828-5.296552-119.525517 71.468138-225.491862 185.344-274.432 2.048-0.882759 4.237241-2.612966 4.025379-6.17931-0.141241-2.895448-3.10731-3.742897-5.720276-2.966069C206.318345-60.875034 72.174345 96.29131 67.089655 285.484138 60.733793 523.828966 261.684966 722.626207 515.990069 729.370483z"  horiz-adv-x="1024" />

    
    <glyph glyph-name="chehui1" unicode="&#58940;" d="M930.909091 8.936727s-8.564364-22.109091-20.107636 0c0 0-128.279273 384.837818-441.157819 287.744v-119.435636s-5.026909-69.818182-66.885818-24.669091l-307.2 263.586909s-65.163636 35.188364 4.049455 83.502546l310.830545 265.30909s46.778182 33.186909 57.856-21.131636l0.512-128.791273S1051.601455 587.403636 930.909091 8.936727z"  horiz-adv-x="1024" />

    
    <glyph glyph-name="yonghu" unicode="&#58939;" d="M0.271631-115.666626L1011.939245 896l0.978056-0.978055L1.249687-116.644681zM839.436009 217.283095h-53.941222V271.125524c0 16.300919-13.238322 29.53924-29.539241 29.53924s-29.53924-13.238322-29.53924-29.53924v-53.941222h-53.941222c-16.300919 0-29.53924-13.238322-29.53924-29.539241s13.238322-29.53924 29.53924-29.53924h53.941222V104.164599c0-16.300919 13.238322-29.53924 29.53924-29.53924s29.53924 13.238322 29.539241 29.53924v53.941222h53.941222c16.300919 0 29.53924 13.238322 29.53924 29.53924 0 16.399712-13.238322 29.638034-29.53924 29.638034zM536.634095 818.342423C399.903965 818.342423 288.761338 707.199796 288.761338 570.469666c0-79.331137 37.442716-149.968452 95.632056-195.413437C245.786189 300.763558 195.302738 124.219669 192.931695 115.624639c-4.742085-17.19006 5.334846-34.97288 22.524906-39.714966 2.86501-0.790348 5.828813-1.185521 8.59503-1.185521 14.226256 0 27.168198 9.385377 31.119935 23.710427 0.592761 1.975869 56.015884 196.598958 203.020533 236.906685 24.698362-8.199856 50.977418-12.744355 78.441996-12.744355 136.631336 0 247.872757 111.142627 247.872757 247.872757 0.098793 136.631336-111.142627 247.872757-247.872757 247.872757z m0-431.1346C435.667193 387.207823 353.471046 469.403971 353.471046 570.469666s82.196147 183.261843 183.261843 183.261844S719.994732 671.535362 719.994732 570.469666c-0.098793-101.065696-82.294941-183.261843-183.360637-183.261843z"  horiz-adv-x="1034" />

    
    <glyph glyph-name="1huojian" unicode="&#58951;" d="M150.320611 175.759235c7.749498 8.218172 20.813025 8.218172 28.562523 0 7.995091-7.525394 7.995091-20.589944 0-29.05371l-50.559513-50.336432c-7.994068-8.218172-21.305235-8.218172-29.031197 0-8.017604 7.995091-8.017604 20.813025 0 29.031197L150.320611 175.759235 150.320611 175.759235zM786.42514 530.458653 786.42514 530.458653c0-70.167083-56.856939-126.800941-127.024022-126.800941s-127.269615 56.633858-127.269615 126.800941c0 69.654406 57.102532 126.778428 127.269615 126.778428S786.42514 600.625736 786.42514 530.458653L786.42514 530.458653zM659.401118 616.593406 659.401118 616.593406c-47.656393 0-86.11224-38.232766-86.11224-86.134753 0-47.433312 38.455847-85.666078 86.11224-85.666078 47.433312 0 86.157265 38.232766 86.157265 85.666078C745.55736 578.361663 706.83443 616.593406 659.401118 616.593406L659.401118 616.593406zM190.495612 250.035916 190.495612 250.035916c0 26.352181 1.452071 52.257178 4.846378 78.608336 1.429559 9.223059 2.411933 18.401092 4.109598 27.603685l-7.258311-2.90312c-16.703427-6.789637-32.180933-16.705474-45.981241-29.52443-13.778818-12.594853-35.329646-11.858072-48.14758 1.675152-2.411933 3.148713-4.600785 5.828752-5.806239 8.977465-21.281699 42.341341-28.048823 89.997734-20.791535 135.711891 7.258311 45.490054 28.048823 88.345094 62.908772 123.161041l0 0 0 0c31.44313 32.202423 70.88135 52.257178 111.74913 61.234643 34.859949 7.258311 70.680782 6.297426 105.519242-2.680039l6.274914 6.297426 0.5137 0.959861-0.5137 0c73.561389 73.092715 162.621774 122.669854 256.483512 147.83807 97.256044 26.396183 199.849654 26.396183 297.127188 0 12.349259-3.148713 21.282722-12.573363 24.431435-24.185842l0-0.491187 0-0.245593c25.882484-97.010451 25.882484-199.378933-0.245593-296.390407-25.145703-93.637634-74.745355-183.145204-148.061151-256.215406l-2.188852-2.434445-4.823865-4.355191c9.42465-34.367739 10.161431-70.635757 2.657526-105.496729-8.709359-40.644699-29.05371-79.83528-60.989049-111.547539l-1.919722-1.944282c-34.369785-33.363875-76.934207-53.953819-121.241318-61.189617-46.205345-7.034207-94.107331-0.245593-137.185452 21.282722-16.458857 8.218172-23.224957 29.031197-14.984273 45.735647 1.429559 2.657526 3.394307 5.560646 5.783727 7.995091 12.595876 13.533224 22.756283 29.255301 29.544897 45.736671l2.90312 7.480368c-9.200546-1.697665-18.893302-3.148713-28.071336-4.353145-27.111474-3.640923-54.199413-4.847401-81.310887-4.601808-9.178033 0-17.396205 3.617387-23.693632 9.44614l0 0L199.920262 223.171058C192.908568 230.651426 189.513238 240.098589 190.495612 250.035916L190.495612 250.035916zM262.584464 319.711811 262.584464 319.711811c-2.390443-19.361977-3.864004-38.969547-4.332678-58.08593l132.115993-132.339074c19.339464 0.468674 38.70144 2.166339 58.040904 4.600785 23.493064 3.1262 47.210231 7.503904 70.167083 14.270005 3.394307 0.959861 7.258311 1.452071 10.898211 1.205455 18.647709-0.468674 33.631982-16.458857 32.649608-35.329646-0.959861-26.373671-6.744611-52.257178-16.905018-77.1798-3.885494-8.463766-8.240685-17.418718-13.08604-25.882484 18.401092-4.131087 37.517475-4.600785 56.387241-0.982374 30.728862 5.091972 60.229756 18.893302 84.437088 42.341341l1.206478 1.473561c22.509666 21.99699 36.310997 49.599651 42.36283 77.894068 6.744611 29.523407 4.109598 60.497862-6.788613 89.037872-4.846378 12.103666-1.452071 27.334555 9.178033 36.780695l10.652618 10.18292 8.486278 8.686846 1.205455 1.227967c65.321728 64.829518 108.869546 143.460366 130.642432 225.486544 21.305235 79.122035 23.24747 163.067936 4.846378 243.173368-79.837326 17.909905-163.090449 15.968693-242.436588-5.069459-82.761935-22.286586-161.14719-66.056462-226.000244-130.910539l-9.44614-9.178033-0.223081 0-9.178033-10.18292c-9.223059-10.875698-24.208355-15.497972-38.008662-9.915837-28.541033 10.875698-59.761082 12.842493-88.792279 6.54302-28.54001-5.828752-55.897078-20.098757-78.162174-42.341341l0 0.223081c-24.430412-24.431435-38.946011-54.199413-43.793412-86.134753-3.148713-18.155499-2.90312-37.494962 0.982374-56.142671 8.709359 4.868891 17.418718 9.44614 26.128077 13.087063 24.677029 10.161431 50.314942 15.477506 76.44302 17.173125 3.6399 0 7.770987-0.245593 11.142781-1.695618 18.401092-4.356214 28.562523-23.695678 23.694655-41.605583C270.824125 366.877017 265.977747 343.160873 262.584464 319.711811L262.584464 319.711811zM276.139178 50.164772 276.139178 50.164772c7.749498 7.972579 20.567431 7.972579 28.562523 0 8.240685-7.995091 8.240685-20.813025 0-28.785603l-50.805106-50.827619c-7.995091-7.726985-20.813025-7.726985-28.54001 0-8.240685 7.749498-8.240685 21.305235 0 28.785603L276.139178 50.164772 276.139178 50.164772zM213.230406 113.319138 213.230406 113.319138c7.748475 7.749498 20.567431 7.749498 28.562523 0 8.240685-8.240685 8.240685-21.058618 0-29.05371L126.603443-31.123602c-7.972579-7.995091-20.790512-7.995091-28.54001 0-8.463766 8.218172-8.463766 21.058618 0 29.031197L213.230406 113.319138 213.230406 113.319138z"  horiz-adv-x="1024" />

    
    <glyph glyph-name="zhuanban" unicode="&#58938;" d="M0 896h1024v-1024H0zM186.902261 98.415304c-1.625043-6.210783-9.238261-4.36313-8.793044 2.159305 9.683478 138.418087 52.580174 210.298435 94.742261 261.142261 64.044522 77.133913 208.317217 149.081043 307.556174 157.517913 7.835826 0.667826 13.979826 8.681739 13.979826 18.365217v117.381565c0 16.072348 15.60487 24.353391 25.221565 13.467826l221.495653-251.280695c6.656-7.568696 6.366609-20.435478-0.601044-27.558957L623.304348 166.66713c-9.772522-9.99513-24.620522-1.469217-24.620522 14.06887v143.805217c0 9.572174-6.010435 17.563826-13.757217 18.298435-63.398957 6.299826-212.635826-7.635478-272.985044-51.956869-25.711304-18.810435-95.966609-83.21113-125.039304-192.467479z"  horiz-adv-x="1024" />

    
    <glyph glyph-name="qidong" unicode="&#58936;" d="M0 896h1024v-1024H0zM326.099478 558.035478c-50.465391-68.474435-84.101565-142.825739-98.125913-217.35513l-60.015304 9.305043a40.358957 40.358957 0 0 0-30.898087 23.641044 40.336696 40.336696 0 0 0 3.294609 38.733913l75.620174 114.376348a58.434783 58.434783 0 0 0 44.56626 26.245565l65.558261 5.053217z m142.558609-458.039652c74.573913 14.024348 148.925217 47.660522 217.399652 98.125913l-5.075478-65.558261a58.590609 58.590609 0 0 0-26.223304-44.610782l-114.42087-75.620174a40.425739 40.425739 0 0 0-38.756174-3.227826 40.336696 40.336696 0 0 0-23.641043 30.831304l-9.305044 60.059826h0.022261zM446.107826 141.57913a38.956522 38.956522 0 0 0-27.40313 11.397566l-137.661218 137.705739a38.66713 38.66713 0 0 0-10.907826 33.680695 433.352348 433.352348 0 0 0 25.510957 90.022957l246.806261-246.761739a432.172522 432.172522 0 0 0-90.067479-25.510957 38.221913 38.221913 0 0 0-6.277565-0.534261z m384 285.295305c-40.18087-77.668174-128.623304-179.511652-244.869565-239.593739a22.26087 22.26087 0 0 1-1.803131 2.070261L317.306435 455.43513a22.305391 22.305391 0 0 1-2.025739 1.78087c60.082087 116.224 161.925565 204.710957 239.593739 244.869565C652.599652 752.64 754.95513 762.434783 819.645217 762.434783c12.599652 0 23.79687-0.333913 33.213218-0.890435 19.812174-1.068522 35.617391-16.896 36.708174-36.730435 3.116522-57.811478 0.890435-181.203478-59.503305-297.917217z m-256.467478 175.526956a110.124522 110.124522 0 0 1-32.434087-78.358261c0-29.651478 11.50887-57.477565 32.456348-78.425043a110.458435 110.458435 0 0 1 78.402782-32.411826c28.382609 0 56.765217 10.841043 78.358261 32.411826a110.124522 110.124522 0 0 1 32.50087 78.402783c0 29.606957-11.53113 57.477565-32.50087 78.380521a110.992696 110.992696 0 0 1-156.761043 0h-0.022261z m31.365565-125.417739a66.070261 66.070261 0 0 0-19.478261 47.037218c0 17.764174 6.92313 34.482087 19.522783 47.014956a66.181565 66.181565 0 0 0 47.014956 19.478261c17.007304 0 34.05913-6.455652 47.037218-19.478261a66.114783 66.114783 0 0 0 19.478261-47.014956 66.582261 66.582261 0 0 0-113.530435-47.037218h-0.044522zM156.204522 138.729739a22.171826 22.171826 0 0 0-15.693913 37.843478l72.392348 72.392348a22.171826 22.171826 0 0 0 31.365565-31.387826l-72.392348-72.347826a22.105043 22.105043 0 0 0-15.671652-6.500174z m154.423652 43.920696a22.171826 22.171826 0 0 0 0-31.387826L171.408696 12.109913a22.105043 22.105043 0 0 0-31.365566 0 22.171826 22.171826 0 0 0 0 31.387826l139.197218 139.174957a22.171826 22.171826 0 0 0 31.365565 0z m34.971826-66.337392a22.171826 22.171826 0 0 0 31.387826-31.387826l-72.392348-72.370087a22.105043 22.105043 0 0 0-31.387826 0 22.171826 22.171826 0 0 0 0 31.365566l72.392348 72.370087z"  horiz-adv-x="1024" />

    
    <glyph glyph-name="jiaqian" unicode="&#58935;" d="M0 896h1024v-1024H0zM712.347826 518.166261c0 104.915478-79.159652 195.494957-189.818435 217.199304-110.636522 21.682087-222.564174-31.47687-268.288-127.421217-45.723826-95.944348-12.8-208.517565 78.959305-269.846261l-0.801392-0.311652a361.917217 361.917217 0 0 1-115.110956-72.169739C151.173565 204.399304 113.196522 121.766957 111.304348 35.149913a6.90087 6.90087 0 0 1 2.203826-5.164522 8.036174 8.036174 0 0 1 5.498435-2.159304h57.856c4.162783 0.044522 7.568696 3.116522 7.702261 7.012174 1.714087 68.763826 31.98887 134.255304 84.48 182.828522 53.938087 50.532174 127.465739 78.825739 204.109913 78.580869 63.443478 0.022261 124.260174 23.418435 169.093565 65.024 44.855652 41.627826 70.032696 98.03687 70.032695 156.894609H712.347826zM478.608696 361.73913c-92.204522 0-166.956522 69.765565-166.956522 155.826087s74.752 155.826087 166.956522 155.826087c92.204522 0 166.956522-69.765565 166.956521-155.826087s-74.752-155.826087-166.956521-155.826087zM545.391304 161.391304h267.130435c22.26087 0 33.391304-11.130435 33.391304-33.391304s-11.130435-33.391304-33.391304-33.391304h-267.130435c-22.26087 0-33.391304 11.130435-33.391304 33.391304s11.130435 33.391304 33.391304 33.391304zM712.347826 263.791304v-249.321739c0-20.769391-11.130435-31.165217-33.391304-31.165217s-33.391304 10.395826-33.391305 31.165217V263.791304c0 20.769391 11.130435 31.165217 33.391305 31.165218s33.391304-10.395826 33.391304-31.165218z"  horiz-adv-x="1024" />

    
    <glyph glyph-name="bohui" unicode="&#58931;" d="M0 896h1024v-1024H0zM811.052522 166.066087c6.299826-12.377043 2.159304-26.000696-12.421565-40.870957-22.327652-21.860174-45.634783-61.217391-67.940174-39.401739L512 303.705043l-219.714783-223.009391c-22.305391-21.860174-38.021565 1.736348-60.326956 23.596522-21.882435 22.26087-41.894957 34.370783-20.034783 56.653913l219.714783 223.031652-212.947478 221.629218c-21.882435 22.28313-8.614957 35.773217 13.267478 58.078608 22.305391 21.837913 44.766609 44.032 67.094261 22.171826L512 464.205913l220.582957 219.670261c22.327652 21.860174 37.175652 1.625043 59.481043-20.21287 21.882435-22.305391 42.74087-37.754435 20.880696-60.037565l-220.582957-219.670261 218.668522-217.889391z"  horiz-adv-x="1024" />

    
    <glyph glyph-name="baocun" unicode="&#58930;" d="M0 896h1024v-1024H0zM803.483826 328.859826v114.42087c0 36.463304-29.96313 66.114783-66.782609 66.114782H287.298783c-36.864-0.022261-66.738087-29.606957-66.782609-66.114782v-114.42087A44.699826 44.699826 0 0 1 178.086957 284.471652v-167.468522c0-11.842783 4.741565-23.195826 13.200695-31.565913 8.45913-8.392348 19.923478-13.089391 31.899826-13.089391h577.625044A44.877913 44.877913 0 0 1 845.913043 117.00313V284.493913a44.699826 44.699826 0 0 1-42.429217 44.388174z m-516.185043 136.459131h449.402434c12.265739 0 22.26087-9.906087 22.26087-22.038261v-114.153739H670.274783c-0.400696 0-0.77913 0.111304-1.179826 0.111304-0.400696 0-0.77913-0.111304-1.179827-0.111304h-1.001739l-0.111304-0.111305a30.319304 30.319304 0 0 1-28.293565-30.096695c0-0.556522 0.133565-1.113043 0.178087-1.669566l-0.066783-0.044521c0-11.130435-4.318609-21.170087-11.174956-28.939131H396.55513c-7.168 7.969391-11.130435 18.253913-11.174956 28.939131l-0.133565 0.133565c0.022261 0.400696 0.133565 0.823652 0.133565 1.246608 0 8.102957-3.250087 15.872-9.037913 21.593044a30.98713 30.98713 0 0 1-21.793391 8.94887c-0.489739 0-0.979478-0.133565-1.469218-0.155827l-0.155826 0.155827h-87.885913v114.131478c0 12.154435 9.99513 22.038261 22.26087 22.038261z m81.630608 163.973565l285.451131-1.157565c18.877217 0 28.382609 11.041391 28.382608 23.218086 0 12.154435-9.505391 20.880696-28.382608 20.880696L368.929391 673.391304c-18.899478 0-27.692522-9.883826-27.692521-22.038261 0-12.176696 8.793043-22.038261 27.692521-22.03826z m-66.782608-75.776l419.016347-1.157565c18.899478 0 28.40487 11.01913 28.40487 23.218086 0 12.154435-9.527652 20.902957-28.40487 20.902957l-419.016347 1.113043c-18.899478 0-27.692522-9.861565-27.692522-22.03826 0-12.176696 8.793043-22.038261 27.692522-22.038261z"  horiz-adv-x="1024" />

    
    <glyph glyph-name="caogao" unicode="&#58929;" d="M504.035556 785.009778a7.964444 7.964444 0 0 0 7.964444-7.964445v-56.035555a7.964444 7.964444 0 0 0-7.964444-7.964445H232.96v-658.033777h557.966222V375.978667a7.964444 7.964444 0 0 0 7.964445 8.021333h56.035555a7.964444 7.964444 0 0 0 7.964445-7.964444v-385.024a7.964444 7.964444 0 0 0-7.964445-7.964445H169.016889a7.964444 7.964444 0 0 0-7.964445 7.964445V776.988444a7.964444 7.964444 0 0 0 7.964445 7.964445h334.961778z m190.008888-461.027556a7.964444 7.964444 0 0 0 7.964445-7.964444v-56.035556a7.964444 7.964444 0 0 0-7.964445-7.964444H329.955556a7.964444 7.964444 0 0 0-7.964445 7.964444v56.035556a7.964444 7.964444 0 0 0 7.964445 7.964444h364.088888zM493.966222 515.982222a7.964444 7.964444 0 0 0 7.964445-7.964444v-56.035556a7.964444 7.964444 0 0 0-7.964445-7.964444H329.955556a7.964444 7.964444 0 0 0-7.964445 7.964444V508.017778a7.964444 7.964444 0 0 0 7.964445 7.964444h164.010666z m373.76 265.955556l39.253334-39.879111a7.964444 7.964444 0 0 0 0-11.320889L621.909333 449.991111a7.964444 7.964444 0 0 0-11.320889 0.056889l-39.253333 39.879111a7.964444 7.964444 0 0 0 0 11.377778l285.070222 280.746667a7.964444 7.964444 0 0 0 11.377778-0.113778z"  horiz-adv-x="1024" />

    
    <glyph glyph-name="ht-holiday" unicode="&#58978;" d="M320.675166 838.520634h67.334873v-96.896275H320.675166zM320.675166 644.702485h67.334873v-51.043848H320.675166zM640.526054 644.702485h67.334873v-51.043848h-67.334873zM640.526054 838.520634h67.334873v-96.896275h-67.334873zM216.099275 448.529254H807.844408v-39.207h93.865387V643.683656c0 54.095215-43.850607 97.945823-97.945823 97.945823H220.184831c-54.095215 0-97.945823-43.850607-97.945823-97.945823V102.95165199999997c0-54.095215 43.850607-97.945823 97.945823-97.945822h233.516644l-0.906195 96.921874H216.099275V448.529254z m0 196.173231h591.740013v-122.715144H216.099275V644.702485zM917.499085 313.2093c-25.813749 0-87.890645 0.215029-87.890645 0.215029v29.863467c-2.611069 30.559752-49.80999 30.237208-52.902315 0v-29.878826l-110.714465 0.225268v28.79856c-1.228739 31.650257-51.304955 31.332833-52.692405 0v-28.79856h-83.19584c-33.170821-0.322544-30.503435-51.089926 0-50.772501h83.19584v-30.503435c0.455657-7.925364 3.80909-13.910344 8.585811-17.9959-32.40286-0.020479-57.566402-0.030718-65.916704-0.030719-30.477836-0.558052-29.356612-50.39876 0-50.557472h75.034968s0.215029-185.913264 0.215029-215.136763c-0.291825-33.493365 52.743603-34.850097 52.584891 1.469367 0 37.225659-0.107515 213.344853-0.107515 213.344852h168.977151s0.184311-22.613909-0.455657-33.063306c-0.639968-10.454517-2.385801-33.042828-3.307354-39.462987s-4.321064-28.982871-15.041808-39.145563c-6.706865-3.266397-11.519424-6.19489-32.853398-5.012229-21.144543 2.211729-55.252277 10.300925-57.704635 10.454517s-25.706235 1.919904-27.626138-23.038848c-1.172421-13.121904 2.826099-23.120764 15.226118-29.356612s28.972631-7.346833 40.451098-9.251378c21.175261-3.517264 52.067797-9.758232 84.900715 4.054837 37.276856 15.681776 40.533013 56.742123 42.452917 68.476577s7.305875 56.957152 7.305875 104.156072c0.00512 40.077356-27.677336 42.237888-53.5986 42.237888l-31.414749-0.015359c4.843278 4.126514 8.268387 10.316284 8.80084 18.733143 0 17.494165-0.215029 29.653557-0.21503 29.653557h87.890646c31.056367 1.382331 30.093855 50.552352 0.015359 50.337324z m-259.617099-98.821299c4.740883 4.20331 7.945843 10.459637 8.109674 18.825298 0 21.758912-0.215029 29.653557-0.215029 29.653558h110.714464s0.424939 3.414869 0.424939-29.653558c0.163832-8.293985 3.645258-14.555432 8.713805-18.753622l-127.747853-0.071676z"  horiz-adv-x="1024" />

    
    <glyph glyph-name="ht-rest-day" unicode="&#58979;" d="M320.675166 838.520634h67.334873v-96.896275H320.675166zM320.675166 644.702485h67.334873v-51.043848H320.675166zM640.526054 838.520634h67.334873v-96.896275h-67.334873zM640.526054 644.702485h67.334873v-51.043848h-67.334873zM216.099275 101.93282299999998V448.529254H807.844408v-39.207h93.865387V643.683656c0 54.095215-43.850607 97.945823-97.945823 97.945823H220.184831c-54.095215 0-97.945823-43.850607-97.945823-97.945823V102.95165199999997c0-54.095215 43.850607-97.945823 97.945823-97.945822h233.516644l-0.906195 96.921874H216.099275z m0 542.769662h591.740013v-122.715144H216.099275V644.702485zM933.554602 60.519214000000034c-37.758112 27.677336-88.474296 83.19584-122.873856 158.497035h102.845418c8.263267 0 20.110354 4.771601 20.110354 23.632739 0 18.420839-11.847088 23.141243-20.110354 23.141242h-117.564682v71.466507c0 8.263267-5.119744 20.130833-24.549173 20.130834-19.931163 0-24.252227-11.867567-24.252227-20.130834v-71.466507h-105.446248c-15.666417 0-20.19739-12.855677-20.19739-23.141242 0-18.861137 11.913644-23.632738 20.19739-23.632739h88.325824c-29.919784-65.542963-61.677556-110.842458-114.180531-157.647157-1.986461-1.730473-4.090675-4.648728-5.867227-7.81785l0.051198 189.834989c15.410429 30.257687 26.0083 56.020239 34.00022 82.555872 0.568292 2.293645 1.837988 6.624949 1.837988 7.761532 0.296945 7.715454-0.79868 18.077816-15.917284 23.279476a30.155292 30.155292 0 0 1-6.880936 1.438648c-16.081116 1.520564-22.624149-7.40315-24.718124-14.80118-17.60168-62.158812-43.947883-115.736933-88.484536-166.099855-7.618179-8.611409-7.884406-14.432558-7.618179-18.984011 0.506855-8.585811 5.534443-14.821659 9.707035-18.134133 7.121564-5.652197 12.113314-5.048068 16.106714-5.01223 8.693325 0.081916 15.154442 5.462767 18.881616 10.024459 10.556912 12.845438 3.655497 3.732293 15.651058 20.61209-1.279936-26.320604-1.279936-20.473856-1.279936-42.719144l-0.081916-163.166242c0-8.555092 5.037828-20.504575 24.830758-20.504575 19.40895 0 23.888726 11.944363 23.888726 20.504575l0.020479 70.094415c1.172421-2.032538 2.447238-3.844928 3.635018-5.032708 4.290345-4.290345 11.632058-9.758232 18.666587-9.492006 8.427099 0.322544 13.813069 3.937083 17.919104 7.838329 59.99828 56.957152 77.59484 88.474296 96.957712 129.002189V-40.698125000000005c0-8.580691 4.39786-20.622329 24.252227-20.622329 19.106885 0 24.549173 12.041638 24.549173 20.622329v159.449307c-0.271346 17.40713 0 16.79788 0 34.133334 19.147843-40.425499 56.214789-92.370421 101.488685-130.660987 5.242618-4.433698 11.729334-8.017519 20.105235-7.223959 8.478296 0.79868 13.777231 5.677796 17.19722 9.681436 5.20166 6.082256 6.00546 11.565502 6.481596 16.39854 0.552932 5.682916-3.266397 16.20399-7.684736 19.439668z"  horiz-adv-x="1024" />

    
    <glyph glyph-name="ht-duty" unicode="&#58958;" d="M290.323 696.749c38.055 0 68.901 30.553 68.901 68.25V822.843c0 37.697-30.849 68.252-68.901 68.252-38.054 0-68.909-30.555-68.909-68.252v-57.785c0.001-37.698 30.855-68.309 68.909-68.309z m463.641 0c38.051 0 68.904 30.553 68.904 68.25V822.843c0 37.697-30.854 68.252-68.904 68.252-38.055 0-68.908-30.555-68.908-68.252v-57.785c0-37.698 30.853-68.309 68.908-68.309zM921.581 796.279h-61.514v-29.921c0-57.434-47.02-117.922-105.005-117.922-57.989 0-105.008 60.488-105.008 117.922V796.279h-253.63v-29.921c0-57.434-47.017-117.922-105.006-117.922s-104.999 55.73-104.999 113.135v33.107l-79.64 1.601c-38.655 0-70.021-31.038-70.021-69.335v-780.705c0-38.297 31.337-69.334 70.021-69.334h814.8c38.669 0 70.021 31.037 70.021 69.334V731.688c-0.007 38.297-31.35 64.591-70.019 64.591z m9.275-858.827H99.639v656.41h831.218l-0.001-656.41zM425.93 450.254c-30.399 1.663-53.199 2.534-68.398 2.534V300.78999999999996c18.564 0 38.83 0.831 60.799 2.533v-45.599c-21.969 1.662-42.234 2.533-60.799 2.533v-157.064c35.466 15.2 59.928 25.333 73.465 30.399l10.134-40.532c-25.333-10.134-55.732-22.404-91.199-36.733a1421.57 1421.57 0 0 1-103.864-46.865c-3.404 11.835-11.835 27.866-25.333 48.132 21.929 6.729 52.328 16.862 91.198 30.4V260.25800000000004c-20.266 0-42.234-0.871-65.865-2.533v45.599a851.082 851.082 0 0 1 65.865-2.533V452.788c-21.968 0-46.47-0.871-73.465-2.534v45.6c23.631-1.702 54.03-2.534 91.199-2.534 37.128 0 69.229 0.832 96.265 2.534v-45.6z m151.998-30.4c0-49.003-1.703-99.669-5.066-151.997-3.404-47.301-12.666-94.167-27.867-140.598-15.199-46.47-45.598-94.998-91.198-145.664-8.471 11.835-24.502 21.968-48.133 30.399 45.6 37.128 77.661 81.065 96.266 131.73 20.266 52.329 30.795 116.532 31.667 192.53 0.83 75.999 0.395 149.464-1.268 220.396 20.268-5.066 38-7.6 53.199-7.6-5.067-35.464-7.6-78.529-7.6-129.196z m-93.732-189.997h-45.599c6.729 81.066 9.262 139.332 7.6 174.797h45.599c-0.001-62.5-2.534-120.765-7.6-174.797z m324.261 227.997c-25.332 1.663-48.133 2.533-68.398 2.533h-17.734V300.78999999999996c30.4 0 54.863 0.831 73.467 2.533v-43.065c-33.805 1.662-58.266 2.533-73.467 2.533v-205.197h25.334c25.332 0 48.963 0.832 70.932 2.534v-43.066c-25.332 1.702-49.004 2.533-70.932 2.533H638.727c-21.969 0-44.768-0.831-68.398-2.533v43.066c23.631-1.702 43.066-2.534 58.266-2.534h48.133V262.79100000000005c-23.672 0-49.836-0.871-78.533-2.533v43.065c23.631-1.702 49.795-2.533 78.533-2.533V460.387c-20.268 0-47.303-0.871-81.066-2.533V500.92c28.697-1.702 64.164-2.533 106.398-2.533 42.195 0 77.662 0.831 106.398 2.533v-43.066z"  horiz-adv-x="1024" />

    
    <glyph glyph-name="banji" unicode="&#58937;" d="M594.547267 447.257338a226.468259 226.468259 0 0 1 228.565187 224.371331 228.565188 228.565188 0 0 1-456.431399 0A226.468259 226.468259 0 0 1 594.547267 447.257338zM594.547267 826.102389a156.570648 156.570648 0 0 0 158.667576-154.47372 158.667577 158.667577 0 0 0-316.636177 0A156.570648 156.570648 0 0 0 594.547267 826.102389zM594.547267 406.716724c-183.131741 0-327.120819-219.478498-327.12082-499.767919a34.948805 34.948805 0 0 1 34.948806-34.948805h583.645051a34.948805 34.948805 0 0 1 34.948806 34.948805C921.668086 187.937201 777.679007 406.716724 594.547267 406.716724z m-256.524232-464.120137C349.905628 159.978157 462.440782 336.819113 594.547267 336.819113s245.340614-177.539932 255.825256-394.921502zM1073.345901 308.161092a183.830717 183.830717 0 0 1 41.938567 117.427986 165.657338 165.657338 0 0 1-155.172696 173.346076 165.657338 165.657338 0 0 1-155.871673-173.346076 182.432765 182.432765 0 0 1 49.627304-126.514675C978.984127 184.442321 957.315867-12.668942 956.616891-12.668942a34.948805 34.948805 0 0 1 34.948806-39.142662h161.463481a34.948805 34.948805 0 0 1 34.948805 33.550853 461.324232 461.324232 0 0 1-114.632082 326.421843z m-113.933105 220.876451a95.759727 95.759727 0 0 0 85.275085-103.448465 95.759727 95.759727 0 0 0-85.275085-103.448464 95.759727 95.759727 0 0 0-85.275086 103.448464 95.759727 95.759727 0 0 0 85.275086 103.448465z m69.897611-510.25256a506.058703 506.058703 0 0 1-53.821161 234.855973 139.795222 139.795222 0 0 1 42.637543 13.280546A388.630717 388.630717 0 0 0 1118.779349 18.784983zM332.431226 295.579522a182.432765 182.432765 0 0 1 52.423208 130.009556 165.657338 165.657338 0 0 1-155.172696 173.346076 165.657338 165.657338 0 0 1-155.172697-173.346076 183.830717 183.830717 0 0 1 41.938567-117.427986A460.625256 460.625256 0 0 1 0.417574-17.561775a34.948805 34.948805 0 0 1 34.948805-33.550853h162.162458a34.948805 34.948805 0 0 1 34.948805 39.142662S210.110407 184.442321 332.431226 295.579522zM229.681738 529.037543A95.759727 95.759727 0 0 0 314.956823 425.589078a95.759727 95.759727 0 0 0-85.275085-103.448464 95.759727 95.759727 0 0 0-85.275086 103.448464 95.759727 95.759727 0 0 0 85.275086 103.448465z m-69.897611-510.25256H70.315185A388.630717 388.630717 0 0 0 170.967744 266.921502a139.795222 139.795222 0 0 1 43.336519-11.183618 506.058703 506.058703 0 0 1-53.82116-236.952901z"  horiz-adv-x="1189" />

    
    <glyph glyph-name="biaodan" unicode="&#58934;" d="M715.59555643 541.33814251L469.51870152 590.4276429700001l-11.32834626-31.46762849-74.26360327-202.33685128a20.45395853 20.45395853 0 0 0-16.6778431-15.73381424 19.19525338 19.19525338 0 0 0-19.50992968 27.69151306l23.91539766 65.4526673L438.05107302 615.60174577a20.13928224 20.13928224 0 0 0 26.43280794 14.78978541l276.60045453-54.75367358a19.82460595 19.82460595 0 0 0 16.67784312-27.6915131c-31.46762849-101.64044005-66.39669614-203.28088014-105.73123177-302.40390992a314.67628504 314.67628504 0 0 0-31.46762851-62.935257 101.95511635 101.95511635 0 0 0-82.13051039-45.62806133A116.11554917 116.11554917 0 0 0 480.53237151 148.62213879c-52.23626332 23.28604509-103.84317407 46.57209019-155.7647611 69.85813528a102.58446891 102.58446891 0 0 0-39.01985934 27.06216052 94.40288551 94.40288551 0 0 0-20.76863482 69.54345898c0 8.4962597 2.20273401 17.30719567 3.46143915 26.74748425l5.34949682-1.88805773c69.54345898-28.00618937 138.77224169-56.32705502 208.31570071-84.0185681a6.60820198 6.60820198 0 0 0 4.72014427-6.92287827 100.06705864 100.06705864 0 0 1 9.12561226-48.77482417 45.62806133 45.62806133 0 0 1 47.51611903-24.23007395 67.0260487 67.0260487 0 0 1 48.46014791 35.87309649 421.98089822 421.98089822 0 0 1 31.4676285 71.74619299c29.57957079 77.09568983 56.01237873 155.4500848 81.81583411 234.11915606 2.83208656 7.86690713 5.34949685 15.73381426 7.86690713 23.91539767z m0 0M577.76734357 296.51999276000004a18.56590082 18.56590082 0 0 0-24.85942651-17.62187195l-80.55712898 26.74748422a19.50992967 19.50992967 0 0 0-12.90172768 19.82460595 18.56590082 18.56590082 0 0 0 16.36316682 16.36316684 25.80345539 25.80345539 0 0 0 9.75496484 0l77.72504241-25.80345539a18.56590082 18.56590082 0 0 0 14.4751091-18.56590082z m31.46762851 76.46633727a17.62187197 17.62187197 0 0 0-5.03482057-13.21640398 17.93654825 17.93654825 0 0 0-13.21640398-5.34949684 21.71266367 21.71266367 0 0 0-7.8669071 0l-78.35439498 26.74748423a18.8805771 18.8805771 0 0 0-13.84575655 23.28604509 17.93654825 17.93654825 0 0 0 21.0833111 13.53108025c9.44028854-2.51741029 18.25122453-5.97884941 27.3768368-8.81093598l53.49496846-17.62187197a18.56590082 18.56590082 0 0 0 14.78978538-18.25122452z m33.3556862 81.8158341a17.93654825 17.93654825 0 0 0-20.13928223-18.25122453c-11.64302256 2.20273401-22.97136881 5.66417314-34.29971508 8.81093598l-50.34820559 13.53108027a18.25122453 18.25122453 0 0 0-14.7897854 16.67784309 17.93654825 17.93654825 0 0 0 9.12561226 17.93654826 20.76863481 20.76863481 0 0 0 17.30719568 0L606.40288551 478.40288551l22.02733995-5.97884942a19.19525338 19.19525338 0 0 0 14.16043282-18.25122454z m-186.9177133-19.19525339a20.13928224 20.13928224 0 0 0 20.13928224-20.13928224 19.50992967 19.50992967 0 0 0-18.88057709-18.8805771 20.13928224 20.13928224 0 0 0-21.08331111 18.88057709 18.8805771 18.8805771 0 0 0 18.88057711 18.88057712z m31.46762851 40.27856449a19.82460595 19.82460595 0 0 0-20.45395853 19.19525338 17.62187197 17.62187197 0 0 0 5.66417312 13.21640397 18.56590082 18.56590082 0 0 0 13.21640398 5.34949686 19.50992967 19.50992967 0 0 0 20.7686348-19.50992968 17.62187197 17.62187197 0 0 0-19.19525337-17.93654825zM425.46402161 362.91668890000005a19.50992967 19.50992967 0 0 0 20.45395855-19.19525339 18.56590082 18.56590082 0 0 0-5.34949688-13.21640397 19.82460595 19.82460595 0 0 0-12.90172768-5.34949684 20.13928224 20.13928224 0 0 0-21.71266366 19.19525338 18.8805771 18.8805771 0 0 0 19.50992967 18.56590082z m0 0"  horiz-adv-x="1024" />

    
    <glyph glyph-name="to-be-read" unicode="&#59334;" d="M132.266667 11.946667000000048V756.0533330000001a7.68 7.68 0 0 0 7.68 7.68H768a7.68 7.68 0 0 0 7.253333-7.68v-384h54.613334v384A61.866667 61.866667 0 0 1 768 817.92H139.946667a61.866667 61.866667 0 0 1-61.866667-61.866667v-744.106666a61.866667 61.866667 0 0 1 61.866667-61.866667h350.293333V4.266666999999984H139.946667a7.68 7.68 0 0 0-7.68 7.68zM294.826667 341.33333300000004a27.306667 27.306667 0 0 1 0-54.613333h108.373333a27.306667 27.306667 0 0 1 0 54.613333z m341.333333 119.466667a27.306667 27.306667 0 0 1-27.306667 27.306667H294.826667a27.306667 27.306667 0 1 1 0-54.186667h312.32a27.306667 27.306667 0 0 1 27.306666 28.16z m-27.306667 170.666667H294.826667a27.306667 27.306667 0 0 1-27.306667-27.306667 27.306667 27.306667 0 0 1 27.306667-26.88h312.32a27.306667 27.306667 0 0 1 27.306666 26.88 27.306667 27.306667 0 0 1-27.306666 26.88zM722.346667-4.693333000000052A180.053333 180.053333 0 0 1 896 136.96000000000004a177.92 177.92 0 0 1-348.16 0 179.626667 179.626667 0 0 1 174.506667-141.653333z m-223.146667 145.92a227.84 227.84 0 0 0 446.293333 0 13.226667 13.226667 0 0 0 0-8.106667 227.84 227.84 0 0 0-446.293333 0 14.506667 14.506667 0 0 0 0 8.533333z m223.146667-102.4a98.56 98.56 0 1 0 98.133333 98.133333 98.56 98.56 0 0 0-98.133333-98.133333z m0 47.786666a50.773333 50.773333 0 1 1-50.773334 50.346667A50.346667 50.346667 0 0 1 722.346667 85.33333300000004z"  horiz-adv-x="1024" />

    
    <glyph glyph-name="Verificationcode-" unicode="&#58925;" d="M857.6 736c-177.066667 0-275.2 57.6-320 91.733333-14.933333 12.8-38.4 12.8-53.333333 0-42.666667-34.133333-140.8-91.733333-320-91.733333-23.466667 0-42.666667-19.2-42.666667-42.666667v-386.133333c0-123.733333 70.4-236.8 181.333333-292.266667l187.733334-91.733333c12.8-6.4 25.6-6.4 36.266666 0l187.733334 91.733333c110.933333 55.466667 181.333333 168.533333 181.333333 292.266667V693.333333c4.266667 23.466667-14.933333 42.666667-38.4 42.666667zM721.066667 469.333333L492.8 241.066667c-17.066667-17.066667-42.666667-17.066667-59.733333 0l-85.333334 85.333333c-17.066667 17.066667-17.066667 42.666667 0 59.733333 17.066667 17.066667 42.666667 17.066667 59.733334 0l55.466666-55.466666 198.4 198.4c17.066667 17.066667 42.666667 17.066667 59.733334 0 17.066667-17.066667 17.066667-42.666667 0-59.733334z"  horiz-adv-x="1024" />

    
    <glyph glyph-name="guanwang" unicode="&#58927;" d="M827.66 311.92c0 12.428-9.942 22.991-22.99 22.991-12.428 0-22.992-9.942-22.992-22.99v-234.882c0-1.243 0-3.107 0.622-4.35 0.621-1.864 1.242-11.806-3.107-17.398-3.729-4.971-12.428-5.593-19.263-5.593H592.158l-1.243 171.5c1.243 8.079 2.486 35.42-13.67 54.06-6.835 8.079-19.884 18.02-41.633 18.02H474.717c-21.748 0-34.797-9.941-41.632-18.02-16.156-19.262-14.913-45.981-13.67-54.06l-1.243-171.5H250.4c-6.214 0-14.913 1.243-18.642 5.593-4.35 4.97-3.728 14.292-3.107 17.398 0.622 1.865 0.622 2.486 0.622 4.35V311.92c0 12.428-9.942 22.991-22.991 22.991-12.428 0-22.991-9.942-22.991-22.99v-233.018c-1.243-8.078-3.107-32.933 13.049-52.196 8.078-9.942 24.855-22.37 54.06-22.37h190.763c12.427 0 22.99 9.943 22.99 22.992l1.244 195.734v3.728c-0.622 5.593 0 16.156 3.107 19.884 1.242 1.243 3.728 1.865 6.835 1.865h62.138c3.728 0 6.213-0.622 6.835-1.865 3.107-3.728 3.728-13.67 3.107-19.884v-3.728l1.242-195.734c0-12.428 10.564-22.991 22.991-22.991h190.763c29.827 0 45.982 12.427 54.06 22.37 16.156 19.262 14.292 44.117 13.05 52.195L827.66 311.92z m0 0M925.217 361.63L597.129 713.952c-4.971 5.592-37.904 41.632-86.372 43.496-34.797 1.243-68.351-14.913-98.799-47.846C329.315 622.61 86.356 364.116 83.87 361.63c-8.699-9.32-8.078-23.612 1.243-32.311 9.32-8.7 23.612-8.078 32.312 1.242 2.485 2.486 246.066 260.98 328.088 347.972 21.748 22.991 42.875 34.176 64.001 33.555 30.448-0.622 52.818-26.098 53.439-27.34 0.621-0.622 0.621-0.622 0.621-1.244l328.088-352.943c4.35-4.35 10.564-7.456 16.777-7.456 5.593 0 11.185 2.485 15.535 6.214 9.32 8.699 9.942 22.99 1.243 32.311z m0 0"  horiz-adv-x="1024" />

    
    <glyph glyph-name="shouye" unicode="&#58919;" d="M562.805 815.3025a72.135 72.135 0 0 1-96.93 0L73.925 443.13a36.1575 36.1575 0 0 1 48.42-53.7075l6.2325 5.91750001V6.899999989999969a72.315 72.315 0 0 1 72.315-72.40499999h210.4425v217.71a50.9175 50.9175 0 0 0 50.94 50.985h99.0225a50.9175 50.9175 0 0 0 50.94-50.985v-217.71h215.4375a72.315 72.315 0 0 1 72.3375 72.40500001V390.5925c16.065-14.535 38.8575-13.4325 52.2225 1.4625a36.1575 36.1575 0 0 1-2.61 51.075L562.805 815.28z"  horiz-adv-x="1024" />

    
    <glyph glyph-name="yuedu" unicode="&#59046;" d="M481.219403-127.456256c-25.827839 14.681087-49.480702 29.226239-74.085116 42.004222a668.397284 668.397284 0 0 1-302.321652 77.891325c-33.032447 0-42.819838 9.107712-44.587006 33.168383-1.35936 18.351359 0 28.682495 24.332543 30.721534 45.81043 3.806208 88.494332 48.121342 93.6599 98.689532A652.492773 652.492773 0 0 1 176.722776 314.471662a113.234683 113.234683 0 0 1-103.311356 97.194235c-10.1952 1.087488-13.593599 4.349952-13.593599 14.545152-0.67968 38.062078 8.15616 47.985406 46.218238 47.16979a763.824352 763.824352 0 0 0 362.405361-89.174012 22.837247 22.837247 0 0 0 14.545151-22.701311v-473.872877c-0.407808-4.349952-1.223424-8.699904-1.767168-15.088895zM542.662473-128v20.662271V358.65086A25.012223 25.012223 0 0 0 557.34356 385.022443a764.91184 764.91184 0 0 0 370.697457 88.22246c29.498111 0 45.538558-25.148159 36.702718-54.374398-2.310912-7.47648-7.748352-6.388992-12.642047-6.660864-58.180606-2.71872-110.651899-60.899325-107.93318-122.342394 1.767168-37.246462 1.495296-74.628861 0-111.875324-2.446848-63.346173 49.20883-121.526779 108.748796-123.429883 9.787392 0 11.690496-4.621824 12.098303-13.593599 1.223424-35.615231-6.932736-47.84947-39.421438-48.121342a697.759459 697.759459 0 0 1-372.328689-115.137787zM471.567948 538.630116A180.115192 180.115192 0 0 0 333.04917 731.387356a180.251128 180.251128 0 0 0 359.142897 0 179.979256 179.979256 0 0 0-138.654715-192.75724 33.712127 33.712127 0 0 0-25.691903-8.699903 98.553596 98.553596 0 0 0-32.21683-1.087488 42.41203 42.41203 0 0 0-24.060671 9.787391zM120.445275 232.638193v-59.947774a59.268094 59.268094 0 0 0-60.08371-59.404029A58.860286 58.860286 0 0 0 0.005984 172.962291q-1.087488 60.899325 0 122.342395a58.996222 58.996222 0 0 0 59.539965 57.908734 59.268094 59.268094 0 0 0 60.76339-58.588414c0.543744-20.662271 0.135936-41.324542 0.135936-61.986813zM1024.827445 232.638193v-59.947774a59.947773 59.947773 0 0 0-119.759611 0c0 40.780798-0.815616 81.561597 0 122.342395a59.947773 59.947773 0 0 0 119.759611 0c0.543744-21.070079 0.135936-41.73235 0-62.394621zM496.036427 531.561444l29.226239 3.670272c19.846655-4.214016 40.780798 0.815616 59.947773-3.262464a243.733238 243.733238 0 0 0 106.437884-28.546558c-42.955774-13.593599-84.14438-22.565375-118.536187-44.722942-42.140158-27.187199-78.842877-27.187199-121.118971 0-34.119935 22.293503-75.580413 30.993407-118.264315 45.13075a245.772278 245.772278 0 0 0 106.301947 28.13875 193.300984 193.300984 0 0 0 56.00563-0.407808zM496.036427 531.561444h-56.00563c9.651456 6.660864 22.293503-1.495296 31.537151 6.660864a39.965182 39.965182 0 0 0 24.468479-6.660864zM585.210439 531.969252c-19.982591 0-40.780798-4.893696-59.947773 3.262464l28.274686 3.3984c9.379584-8.15616 22.021631 0 31.673087-6.660864z"  horiz-adv-x="1025" />

    
    <glyph glyph-name="guanli" unicode="&#58920;" d="M535.879376 157.036382a40.928862 40.928862 0 0 0-32.083849-0.546123L38.025072 344.660856a38.712744 38.712744 0 0 0-21.671011 51.066814c8.922857 20.06913 32.189668 29.404316 52.510575 21.07137l450.174915-181.990521 434.983193 175.861531c20.320907 8.337811 43.587718-1.00224 52.508142-21.071371a38.717609 38.717609 0 0 0-21.67466-51.119115l-448.97685-181.39088v-0.052302z m0-168.293644a40.896022 40.896022 0 0 0-32.083849-0.492606L38.025072 176.317343a38.707879 38.707879 0 0 0-21.671011 51.064381c8.904612 20.094673 32.176289 29.452969 52.510575 21.124889l450.174915-181.990522L954.021528 242.378838c20.33307 8.328081 43.604746-1.031432 52.508142-21.124888a38.703013 38.703013 0 0 0-21.67466-51.059516l-448.928198-181.496699-0.047436 0.045003z m471.34724 579.210909c7.280837-19.807623-2.711157-41.785145-22.419043-49.321408L535.029175 336.790108h-0.099738a41.354571 41.354571 0 0 0-31.13391-0.052301l-465.618416 188.224114c-18.543876 7.245564-28.593037 27.347535-23.266812 46.528758v0.099738c0.052301 0.199475 0.052301 0.498687 0.199475 0.698162a39.050878 39.050878 0 0 0 23.266812 25.656863l448.928197 181.395745a40.77804 40.77804 0 0 0 15.939755 2.988476c5.430828 0.072979 10.815437-0.945074 15.847315-2.988476l465.664635-188.271551c10.96261-4.432237 18.834575-13.051016 22.470128-23.115989z m0 0"  horiz-adv-x="1024" />

    
    <glyph glyph-name="yuanquanxuanzhong" unicode="&#58970;" d="M512-66C263.459375-66 62 135.45937500000002 62 384S263.459375 834 512 834s450-201.459375 450-450-201.459375-450-450-450z m0 281.25a168.75 168.75 0 1 1 0 337.5 168.75 168.75 0 0 1 0-337.5z"  horiz-adv-x="1024" />

    
    <glyph glyph-name="yiban" unicode="&#58922;" d="M332.07500009 609.00000027c-26.81249963 0-48.74999963 23.00625027-48.75000046 51.13125V745.36874981c0 28.12499973 21.9375 51.13125 48.75000046 51.13125001 26.81249963 0 48.74999963-23.00625027 48.74999964-51.13125v-85.23749955c0-28.12499973-21.9375-51.13125-48.74999964-51.13125z m341.55 0c-26.81249963 0-48.73125009 23.00625027-48.73125009 51.13125V745.36874981c0 28.12499973 21.9375 51.13125 48.74999963 51.13125001 26.79375009 0 48.73125009-23.00625027 48.7312501-51.13125v-85.23749955c0-28.12499973-21.9375-51.13125-48.74999964-51.13125zM837.53750037 740.25000037H186.46249963C159.33125037 740.25000037 137.00000009 717.35624982 137.00000009 689.54999973v-666.93749992C137.00000009-5.606250090000003 159.33125037-28.49999981999997 186.87500027-28.49999981999997h650.24999946c27.54374991 0 49.87500019 22.89374973 49.87500018 51.11249964V689.54999973C886.60624963 717.35624982 864.66874963 740.25000037 837.53750037 740.25000037z m-117.30000037-390.91875019L506.01875019 129.75000027a31.48125018 31.48125018 0 0 0-45.07500037 0l-135.24374982 138.61874982a33.4125 33.4125 0 0 0 0 46.2000001 31.48125018 31.48125018 0 0 0 45.07500037 0l112.89375-115.70625056 191.88749954 196.68750019a31.48125018 31.48125018 0 0 0 45.09374991 0 33.80625027 33.80625027 0 0 0-0.41249982-46.21874963z m102.13124991 303.4125c-0.39375027-9.41250009-0.39375027-22.50000027-0.78749972-38.43750009-0.41249982-13.5-0.41249982-27-0.41249982-37.61250046H201.23749981v92.8125a5.43749991 5.43749991 0 0 0 5.56875001 5.32500018h610.38750037c3.18749963 0 5.56875-2.45625018 5.56875-5.32500018-0.37499991-4.91250037-0.37499991-11.04374982-0.37499992-16.76249945z"  horiz-adv-x="1024" />

    
    <glyph glyph-name="xinjianliucheng" unicode="&#58924;" d="M617.472 735.744h281.6V665.6h-281.6V735.744zM899.072 735.744v-281.6h-70.144v281.6h70.144zM335.872 384h-281.6v-70.144h281.6V384z m0-281.6h-281.6v-70.144h281.6V102.4zM54.784 384v-351.744h70.144V384H54.784zM758.272 454.144c-128.512 0-240.64-87.04-272.384-210.944H230.4c-19.456 0-35.328 15.872-35.328 35.328V489.472c0 19.456 15.872 35.328 35.328 35.328h492.544c19.456 0 35.328-15.872 35.328-35.328v-35.328z m-281.6-281.088c0-80.896 34.816-157.696 95.232-210.944H230.4c-19.456 0-35.328 15.872-35.328 35.328V138.24c0 19.456 15.872 35.328 35.328 35.328h246.272zM230.4 806.4h492.544c19.456 0 35.328-15.872 35.328-35.328v-140.8c0-19.456-15.872-35.328-35.328-35.328H230.4c-19.456 0-35.328 15.872-35.328 35.328V771.072c0.512 19.456 15.872 35.328 35.328 35.328z m527.872-844.8c-116.736 0-210.944 94.72-210.944 210.944s94.72 210.944 210.944 210.944 210.944-94.72 210.944-210.944-94.208-210.944-210.944-210.944z m-35.328 246.272h-70.144c-19.456 0-35.328-15.872-35.328-35.328s15.872-35.328 35.328-35.328h70.144v-70.144c0-19.456 15.872-35.328 35.328-35.328 19.456 0 35.328 15.872 35.328 35.328v70.144h70.144c19.456 0 35.328 15.872 35.328 35.328s-15.872 35.328-35.328 35.328H793.6v70.144c0 19.456-15.872 35.328-35.328 35.328-19.456 0-35.328-15.872-35.328-35.328v-70.144z"  horiz-adv-x="1024" />

    
    <glyph glyph-name="new2" unicode="&#58917;" d="M864 625.066667h-701.866667c-83.2 0-149.333333-66.133333-149.333333-149.333334v-332.8h853.333333c83.2 0 149.333333 66.133333 149.333334 149.333334V625.066667h-151.466667z m-533.333333-379.733334H277.333333l-104.533333 168.533334v-168.533334h-49.066667V503.466667h51.2l106.666667-172.8v172.8h49.066667v-258.133334z m253.866666 0h-196.266666V503.466667h192v-44.8h-140.8v-57.6h130.133333v-42.666667h-130.133333v-70.4h145.066666v-42.666667z m296.533334 0h-55.466667l-51.2 194.133334-51.2-194.133334h-57.6l-61.866667 258.133334h53.333334l38.4-177.066667 46.933333 177.066667h61.866667l44.8-181.333334 40.533333 181.333334h53.333333l-61.866666-258.133334z"  horiz-adv-x="1024" />

    
    <glyph glyph-name="huo1" unicode="&#58918;" d="M430.933333-12.8S87.466667 64 241.066667 448c0 0 34.133333-42.666667 29.866666-64 0 0 27.733333 98.133333 85.333334 155.733333 51.2 49.066667 102.4 189.866667 55.466666 241.066667 0 0 234.666667-51.2 260.266667-302.933333 0 0 29.866667 81.066667 91.733333 87.466666 0 0-19.2-44.8 0-110.933333 0 0 194.133333-341.333333-140.8-456.533333 0 0 100.266667 117.333333-113.066666 317.866666 0 0-51.2-106.666667-81.066667-145.066666 2.133333 0-81.066667-96 2.133333-183.466667z"  horiz-adv-x="1024" />

    
    <glyph glyph-name="dizhi-copy" unicode="&#58911;" d="M508.792 832.52c139.003 0 251.695-112.091 251.695-250.427 0-79.076-69.847-212.192-136.738-311.666 25.32-2.464 49.876-5.751 73.284-9.811v-39.247c-30.743 5.512-63.985 9.715-98.961 12.326-18.849-25.956-36.706-48.142-51.709-64.334 84.314-5.945 147.641-30.886 147.641-60.709 0-34.27-83.526-62.015-186.564-62.015-102.986 0-186.485 27.745-186.485 62.015 0 30.162 64.574 55.246 150.136 60.855-14.901 16.144-32.63 38.136-51.353 63.85-172.705-13.63-301.215-65.204-301.215-126.734 0-71.972 175.839-130.312 392.613-130.312 216.748 0 392.585 58.34 392.585 130.312 0 40.070-54.614 75.933-140.406 99.86v40.117c119.008-30.401 197.159-81.783 197.159-139.977 0-93.433-201.234-169.174-449.338-169.174-248.157 0-449.366 75.742-449.366 169.174 0 78.158 140.967 143.94 332.446 163.324-67.044 99.522-137.121 232.975-137.121 312.148-0.002 138.335 112.716 250.426 251.696 250.426v0zM533.067 155.874c-10.649-10.053-19.080-15.661-24.275-15.661-5.197 0-13.654 5.655-24.404 15.806-79.068-3.336-139.846-23.251-139.846-47.369 0-26.391 72.954-47.805 162.898-47.805 90.022 0 163.002 21.414 163.002 47.805 0 23.831-59.557 43.6-137.376 47.224v0zM506.066 681.519c-68.879 0-124.741-52.976-124.741-118.373 0-65.348 55.863-118.325 124.741-118.325 68.878 0 124.739 52.977 124.739 118.325 0 65.397-55.861 118.373-124.739 118.373z"  horiz-adv-x="1024" />

    
    <glyph glyph-name="youjian" unicode="&#58913;" d="M512.085 696.974c105.589 0 211.178 0.013 316.772-0.004 37.719-0.008 69.325-11.071 86.149-48.297 7.496-16.574 5.908-28.005-12.197-39.288C777.952 531.537 653.8 452.548 529.893 373.194c-13.413-8.59-22.38-8.693-35.883-0.04C368.8 453.449 243.152 533.059 117.28 612.32c-11.537 7.27-14.868 14.144-10.911 27.215 8.978 29.642 28.023 48.03 58.02 54.196 12.401 2.55 25.388 3.088 38.117 3.118 103.19 0.232 206.385 0.13 309.579 0.125z m0 0M510.989 71.041c-107.185 0-214.372-0.125-321.558 0.062-43.303 0.075-72.027 20.284-82.814 55.598-3.89 12.74-1.934 20.194 9.86 27.57 98.28 61.524 196.037 123.872 294.525 185.05 6.61 4.102 19.542 3.857 26.688 0.155 20.519-10.64 39.994-23.491 59.043-36.686 10.739-7.438 19.157-7.832 30.082-0.292 19.072 13.155 39.688 24.088 58.636 37.405 11.044 7.757 18.828 6.515 29.78-0.488 96.324-61.63 192.865-122.919 289.916-183.396 14.969-9.332 16.407-19.587 11.425-33.98-11.221-32.396-41.045-50.869-84.02-50.94-107.185-0.173-214.377-0.058-321.563-0.058z m0 0M105.393 551.657c88.16-56.112 174.706-111.195 263.889-167.955-88.911-56.6-175.062-111.44-263.889-167.986V551.657z m0 0M918.648 551.435v-335.419c-88.943 56.61-175.239 111.543-263.431 167.676 88.41 56.3 174.376 111.036 263.43 167.743z m0 0"  horiz-adv-x="1024" />

    
    <glyph glyph-name="archives" unicode="&#58928;" d="M808.58375001 596.990625c0 42.67874999-42.46875001 42.67874999-42.46875001 42.67875H256.23124999s-42.470625 0-42.47062499-42.67875v-42.6825h594.8221875V596.990625zM681.0996875 725.034375H341.219375s-42.466875 0-42.466875-42.6825h424.8421875c0 42.6825-42.5240625 42.6825-42.5240625 42.6825h0.0290625z m212.41875-170.7253125l-25.12687499 25.2609375v-67.9425H153.955625v67.9425l-25.12687499-25.2609375c-25.130625-25.2609375-43.1625-32.0625-32.99812501-85.4175 10.0284375-53.135625 58.8215625-344.6503125 66.0215625-384.0759375 7.978125-43.2684375 51.9384375-42.6825 51.9384375-42.6825h594.819375s43.959375-0.585 51.939375 42.6825c7.25625001 39.42562501 55.9921875 330.94125001 66.075 384.0759375 10.11 53.3559375-7.8965625 60.12843749-33.0778125 85.4175h-0.028125z m-212.41875-230.4796875s0-42.6825-42.5240625-42.6825H383.714375c-42.4659375 0-42.4659375 42.6825-42.46593749 42.6825V409.190625h59.48906249v-68.28937501h220.79624999V409.190625h59.59031251v-85.36125h-0.024375z m0 0"  horiz-adv-x="1024" />

    
    <glyph glyph-name="dingcanfuwu" unicode="&#59044;" d="M321.59375 16.875c-22.96875-25.21875-60.28125-25.21875-83.25 0s-22.96875 66 0 91.21875l158.4375 173.71875 83.25-91.21875-158.4375-173.71875z m453.65625-1.6875c-22.96875-25.21875-60.28125-25.21875-83.25 0L319.53125 423.46875c-19.6875-9.1875-41.34375-14.25-64.03125-14.25-90.28125 0-163.5 80.25-163.5 179.25s73.21875 179.25 163.5 179.25c90.375 0 163.5-80.25 163.5-179.25 0-25.78125-5.15625-51.28125-15.1875-75l371.25-406.96875c23.15625-25.21875 23.15625-66.09375 0.1875-91.3125z m12.28125 410.625c-19.59375-21.46875-45.375-32.25-71.15625-32.25-14.25 0-28.5 3.65625-41.71875 10.3125l-60.09375-65.90625-83.25 91.21875L593.5625 497.4375c-3.9375 12-6.375 24.75-6.375 37.875 0 29.53125 10.40625 57.1875 29.34375 77.90625l144.375 158.4375 31.3125-34.3125-126.5625-138.84375c-3.9375-4.21875-6-9.9375-6-16.03125 0-6 2.15625-11.71875 6-15.9375l5.90625-6.5625c4.03125-4.40625 9.28125-6.5625 14.625-6.5625 5.25 0 10.5 2.25 14.53125 6.65625l126.65625 138.84375 38.25-41.90625-126.65625-138.84375c-3.84375-4.21875-6-9.9375-6-16.03125s2.15625-11.71875 6-16.03125l5.90625-6.46875c4.03125-4.40625 9.375-6.5625 14.625-6.5625 5.34375 0 10.59375 2.15625 14.625 6.5625l126.65625 138.84375 31.3125-34.3125-144.5625-158.34375z"  horiz-adv-x="1024" />

    
    <glyph glyph-name="che" unicode="&#58914;" d="M529.1875 731.34375H427.9375c-54.84375 0-82.96875-29.53125-95.625-63.28125l-70.3125-180c-28.125-4.21875-77.34375-36.5625-77.34375-97.03125v-229.21875h78.75v-57.65625c0-90 106.875-88.59375 106.875 0v57.65625h485.15625v-57.65625c0-88.59375 106.875-90 106.875 0v57.65625h78.75V389.625c0 61.875-49.21875 94.21875-77.34375 97.03125l-70.3125 180c-12.65625 33.75-42.1875 63.28125-97.03125 63.28125h-267.1875v1.40625zM357.625 299.625c-33.75 0-60.46875 28.125-60.46875 61.875 0 33.75 26.71875 61.875 60.46875 61.875s60.46875-28.125 60.46875-61.875c0-33.75-26.71875-61.875-60.46875-61.875zM335.125 492.28125l53.4375 139.21875c7.03125 19.6875 16.875 33.75 39.375 35.15625h372.65625c22.5 0 33.75-14.0625 39.375-35.15625l53.4375-139.21875H335.125zM870.90625 299.625c-33.75 0-60.46875 28.125-60.46875 61.875 0 33.75 26.71875 61.875 60.46875 61.875s60.46875-28.125 60.46875-61.875c0-33.75-26.71875-61.875-60.46875-61.875zM184.65625 160.40625h78.75V102.75c0-90 106.875-88.59375 106.875 0v57.65625h485.15625V102.75c0-88.59375 106.875-90 106.875 0v57.65625h78.75M335.125 492.28125"  horiz-adv-x="1266" />

    
    <glyph glyph-name="shouye-zhishimianxing" unicode="&#58915;" d="M853.333333 746.666667h-83.413333v-183.893334a10.666667 10.666667 0 0 0-18.133333-7.466666l-73.386667 73.386666a21.333333 21.333333 0 0 1-30.293333 0L576 554.666667a10.666667 10.666667 0 0 0-18.346667 7.466666V746.666667H323.626667v-725.333334H853.333333a21.333333 21.333333 0 0 1 21.333334 21.333334V725.333333a21.333333 21.333333 0 0 1-21.333334 21.333334z m-67.2-533.333334a21.333333 21.333333 0 0 0-21.333333-21.333333H418.773333a21.333333 21.333333 0 0 0-21.333333 21.333333v42.666667a21.333333 21.333333 0 0 0 21.333333 21.333333h346.026667a21.333333 21.333333 0 0 0 21.333333-21.333333z m0 170.666667a21.333333 21.333333 0 0 0-21.333333-21.333333H418.773333a21.333333 21.333333 0 0 0-21.333333 21.333333v42.666667a21.333333 21.333333 0 0 0 21.333333 21.333333h346.026667a21.333333 21.333333 0 0 0 21.333333-21.333333zM170.666667 746.666667a21.333333 21.333333 0 0 1-21.333334-21.333334v-682.666666a21.333333 21.333333 0 0 1 21.333334-21.333334h67.626666V746.666667z"  horiz-adv-x="1024" />

    
    <glyph glyph-name="gongsi" unicode="&#59000;" d="M572 564h240a60 60 0 0 0 60-60v-450a30 30 0 0 0-30-30h-660a30 30 0 0 0-30 30V684a60 60 0 0 0 60 60h300a60 60 0 0 0 60-60v-120zM302 564a30 30 0 0 1 0-60h120a30 30 0 0 1 0 60h-120z m0-120a30 30 0 0 1 0-60h120a30 30 0 0 1 0 60h-120z m0-120a30 30 0 0 1 0-60h120a30 30 0 0 1 0 60h-120z m0-120a30 30 0 1 1 0-60h120a30 30 0 1 1 0 60h-120zM632 444a30 30 0 0 1 0-60h120a30 30 0 1 1 0 60h-120z m0-120a30 30 0 0 1 0-60h120a30 30 0 1 1 0 60h-120z m0-120a30 30 0 1 1 0-60h120a30 30 0 1 1 0 60h-120z"  horiz-adv-x="1024" />

    
    <glyph glyph-name="goutong" unicode="&#58916;" d="M864.00000031 679.99999969h-40.00000031 16.00000031c13.99999969 0 24-12 24-25.99999969v25.99999969z m-344.00000062-492c16.00000031-16.00000031 16.00000031-42 0-57.99999938l-111.99999938-112.00000031c-16.00000031-16.00000031-42-16.00000031-58.00000031 0-16.00000031 16.00000031-16.00000031 42 0 58.00000031l112.00000031 111.99999938c16.00000031 16.00000031 42 16.00000031 57.99999938 0zM884 762h-570c-22.00000031 0-40.00000031-18-40.00000031-40.00000031s18-40.00000031 40.00000031-39.99999938h550.00000031v-366c0-22.00000031 18-40.00000031 39.99999938-40.00000031s40.00000031 18 40.00000031 40.00000031V697.99999969c0 31.99999969-25.99999969 60-60 64.00000031zM758 646.00000031h-610.00000031c-37.99999969 0-70.00000031-31.99999969-69.99999938-70.00000031v-390c0-37.99999969 31.99999969-70.00000031 69.99999938-70.00000031h610.00000031c37.99999969 0 70.00000031 31.99999969 70.00000031 70.00000031V577.99999969c0 37.99999969-31.99999969 67.99999969-70.00000031 68.00000062z m-403.99999969-264c0-22.00000031-18-40.00000031-40.00000031-40.00000031h-37.99999969c-22.00000031 0-40.00000031 18-40.00000031 40.00000031s18 40.00000031 40.00000031 39.99999938h37.99999969c22.00000031 1.99999969 40.00000031-18 40.00000031-39.99999938z m157.99999969 0c0-22.00000031-18-40.00000031-40.00000031-40.00000031h-37.99999969c-22.00000031 0-40.00000031 18-40.00000031 40.00000031s18 40.00000031 40.00000031 39.99999938h37.99999969c22.00000031 1.99999969 40.00000031-18 40.00000031-39.99999938z m157.99999969 0c0-22.00000031-18-40.00000031-39.99999938-40.00000031H591.99999969c-22.00000031 0-40.00000031 18-39.99999938 40.00000031s18 40.00000031 39.99999938 39.99999938h38.00000062c22.00000031 1.99999969 40.00000031-18 39.99999938-39.99999938z"  horiz-adv-x="1024" />

    
    <glyph glyph-name="xiajiang" unicode="&#58987;" d="M636.85632 345.23136h225.43872L512-102.4l-350.29504 447.63136h225.4336V870.4h249.72288l-0.00512-525.16864z"  horiz-adv-x="1024" />

    
    <glyph glyph-name="shangsheng" unicode="&#58988;" d="M387.14368 422.76864H161.70496L512 870.4l350.29504-447.63136h-225.4336V-102.4H387.14368V422.76864z"  horiz-adv-x="1024" />

    
    <glyph glyph-name="guifan_jiangpaijin" unicode="&#58991;" d="M511.3 629.4c-191.5 0-346.8-155.3-346.8-346.8s155.3-346.8 346.8-346.8c191.6 0 346.8 155.3 346.8 346.8S702.9 629.4 511.3 629.4zM582.3 468.3v-371.4h-56.7V400.1c-22.9-21.5-51.3-37.1-85.3-46.8v56.2c16.6 4.2 34.3 11.5 53.1 21.8 18.7 11.8 34 24.1 45.8 36.9h43.1zM833.6 831.8h-212c-11.5 0-20.6-8.1-23.3-18.9L532.9 682s139.9-8.6 222.6-89.4l97.6 200.1c2.9 4.1 5 8.8 5 14.3 0 13.6-11 24.8-24.5 24.8zM489.7 681.9l-65.3 131c-2.7 10.8-11.9 18.9-23.3 18.9H189c-13.5 0-24.5-11.1-24.5-24.9 0-5.4 2.1-10.2 5-14.3l97.6-200.1c82.7 80.9 222.6 89.4 222.6 89.4z"  horiz-adv-x="1024" />

    
    <glyph glyph-name="guifan_jiangpaitong" unicode="&#58992;" d="M511.3 629.4c-191.5 0-346.8-155.3-346.8-346.8s155.3-346.8 346.8-346.8c191.6 0 346.8 155.3 346.8 346.8S702.9 629.4 511.3 629.4zM604.7 448.5c22.2-18.4 33.3-43.3 33.3-74.9 0-40.9-20.5-68.1-61.4-81.7 21.5-6.6 38.1-16.8 49.9-30.7 12.5-13.9 18.7-31.9 18.7-54.1 0-34.3-11.8-62.4-35.4-84.3-25.3-22.2-57.7-33.3-97.3-33.3-37.8 0-68.3 9.7-91.6 29.1-26 21.8-40.6 53.6-43.7 95.2h57.2c1-25.3 9.2-44.6 24.4-57.7 13.5-12.5 31.2-18.7 53.1-18.7 23.6 0 42.8 6.9 57.7 20.8 12.8 12.8 19.2 28.3 19.2 46.3 0 21.8-6.8 38-20.3 48.4-12.5 10.4-31 15.6-55.7 15.6h-27.1v42.7h26.5c22.5 0 39.7 5 51.5 15.1 11.8 10.1 17.7 24.4 17.7 43.2 0 18.4-5.4 32.6-16.1 42.7-11.1 10.1-27.9 15.1-50.5 15.1s-40.1-5.7-52.5-17.2c-12.8-11.8-20.3-29-22.4-51.5h-55.7c3.1 36.7 16.8 65.5 41.1 86.3 22.5 20.5 52.2 30.7 89 30.7 37.9 0 67.9-9.1 90.4-27.1zM833.6 831.8h-212c-11.5 0-20.6-8.1-23.3-18.9L532.9 682s139.9-8.6 222.6-89.4l97.6 200.1c2.9 4.1 5 8.8 5 14.3 0 13.6-11 24.8-24.5 24.8zM489.7 681.9l-65.3 131c-2.7 10.8-11.9 18.9-23.3 18.9H189c-13.5 0-24.5-11.1-24.5-24.9 0-5.4 2.1-10.2 5-14.3l97.6-200.1c82.7 80.9 222.6 89.4 222.6 89.4z"  horiz-adv-x="1024" />

    
    <glyph glyph-name="guifan_jiangpaiyin" unicode="&#58993;" d="M511.3 629.4c-191.5 0-346.8-155.3-346.8-346.8s155.3-346.8 346.8-346.8c191.6 0 346.8 155.3 346.8 346.8S702.9 629.4 511.3 629.4zM605 441.2c22.5-20.8 33.8-47.5 33.8-80.1 0-31.6-12.1-60.9-36.4-87.9-14.6-14.9-40.2-34.8-77-59.8-39.9-26.4-63.8-49.8-71.8-70.2h185.7v-49.9H383.4c0 37.1 12.3 69.5 36.9 97.3 12.8 15.2 40.7 37.8 83.7 67.6 25.3 18 43 32.2 53.1 42.7 17 19.1 25.5 39.3 25.5 60.9 0 20.8-5.7 36.4-17.2 46.8-11.4 10.4-28.3 15.6-50.5 15.6-23.6 0-41.3-8-53.1-23.9-12.1-15.3-18.7-38-19.8-68.2h-56.7c0.7 41.6 12.7 74.9 35.9 99.9 23.6 26.7 55.5 40 95.7 40 36.2-0.1 65.5-10.3 88.1-30.8zM833.6 831.8h-212c-11.5 0-20.6-8.1-23.3-18.9L532.9 682s139.9-8.6 222.6-89.4l97.6 200.1c2.9 4.1 5 8.8 5 14.3 0 13.6-11 24.8-24.5 24.8zM489.7 681.9l-65.3 131c-2.7 10.8-11.9 18.9-23.3 18.9H189c-13.5 0-24.5-11.1-24.5-24.9 0-5.4 2.1-10.2 5-14.3l97.6-200.1c82.7 80.9 222.6 89.4 222.6 89.4z"  horiz-adv-x="1024" />

    
    <glyph glyph-name="email" unicode="&#59251;" d="M439.808 287.846l-372.736 236.237v-372.087c0-61.099 49.664-110.967 110.899-110.967h668.058c61.167 0 110.899 49.698 110.899 110.967v365.943l-348.809-228.864c-47.514-31.164-120.354-31.607-168.311-1.229zM846.029 726.972h-668.058c-61.167 0-110.899-49.698-110.899-110.967v-0.853l419.055-265.591c19.695-12.493 55.091-12.254 74.615 0.546l396.22 259.959v5.939c-0.034 61.065-49.698 110.967-110.933 110.967z"  horiz-adv-x="1024" />

    
    <glyph glyph-name="reqeust-start" unicode="&#58984;" d="M955.733333 672v-416c0-61.866667-43.52-113.493333-101.546666-125.44l31.146666 64c4.693333 8.96 7.253333 18.773333 7.253334 29.44 0 5.973333-1.706667 11.093333-2.986667 16.213333 1.28 5.12 2.986667 10.24 2.986667 15.786667V672c0 35.413333-28.586667 64-63.573334 64h-443.733333c-23.04 0-42.666667-13.226667-53.76-32H262.826667C276.906667 759.04 326.4 800 385.28 800h443.733333c69.973333 0 126.72-57.173333 126.72-128z m-190.293333-464.64L470.186667 130.133333l83.2-47.36c4.693333 4.266667 10.24 8.533333 16.213333 11.093334 8.533333 3.84 17.493333 5.973333 26.453333 5.973333 7.68 0 15.36-1.706667 22.613334-4.693333l119.893333 67.84-97.706667-78.933334 22.613334-12.373333c17.92-9.813333 30.293333-27.733333 32.426666-48.213333 0.853333-7.253333 0-14.506667-1.28-21.333334l17.92-10.24c2.133333 1.706667 4.266667 3.413333 6.4 5.546667l46.506667 95.573333c0 0.853333 0.426667 1.706667 0.426667 2.986667v111.36z m0 240.64H68.266667v64c0 70.826667 56.746667 128 126.72 128h443.733333c69.973333 0 126.72-57.173333 126.72-128v-64zM258.56 544c0 17.493333-14.08 32-31.573333 32-17.493333 0-31.573333-14.506667-31.573334-32s14.08-32 31.573334-32c17.066667 0 31.573333 14.506667 31.573333 32z m380.16 0c0 17.493333-14.08 32-31.573333 32H321.706667c-17.493333 0-31.573333-14.506667-31.573334-32s14.08-32 31.573334-32h285.44c17.493333 0 31.573333 14.506667 31.573333 32zM519.68-18.77333299999998l8.96 42.24L439.466667 74.24000000000001c-22.613333 12.8-34.986667 37.973333-31.573334 64 3.413333 26.026667 21.76 46.933333 46.933334 53.76l311.466666 81.493333v110.506667H68.266667V96c0-70.826667 56.746667-128 126.72-128h323.84c0 4.693333-0.426667 8.96 0.853333 13.226667zM470.186667 130.133333l104.533333-59.306666 163.413333 92.586666-134.4-108.373333 111.36-64.426667 113.493334 233.813334-358.4-94.293334z m111.36-162.133333l51.2 47.786667-37.12 20.48-14.08-68.266667z"  horiz-adv-x="1024" />

    
    <glyph glyph-name="todo" unicode="&#58906;" d="M484 60H363.2c-16 0-28 12.8-28 28v32c0 16 12.8 28 28 28h80c-5.6 22.4-8.8 45.6-8.8 69.6 0 6.4 0 12.8 0.8 19.2h-70.4c-16 0-28 12.8-28 28v32c0 16 12.8 28 28 28H456c14.4 32.8 34.4 62.4 59.2 87.2H362.4c-16 0-28 12.8-28 28v32c0 16 12.8 28 28 28h415.2c15.2 0 28-12 28-27.2 33.6-12.8 64-32 89.6-56V708c0 31.2-25.6 56.8-56.8 56.8h-683.2c-31.2 0-56.8-25.6-56.8-56.8v-650.4c0-31.2 25.6-56.8 56.8-56.8h386.4c-21.6 16-41.6 36-57.6 59.2zM335.2 650.4c0 16 12.8 28 28 28h415.2c16 0 28-12.8 28-28v-32c0-16-12.8-28-28-28H363.2c-16 0-28 12.8-28 28v32z m-148 0c0 16 12.8 28 28 28h32c16 0 28-12.8 28-28v-32c0-16-12.8-28-28-28h-32c-16 0-28 12.8-28 28v32z m-0.8-177.6c0 16 12.8 28 28 28h32c16 0 28-12.8 28-28v-32c0-16-12.8-28-28-28h-32c-16 0-28 12.8-28 28v32zM276 88c0-16-12.8-28-28-28h-32c-16 0-28 12.8-28 28v32c0 16 12.8 28 28 28h32c16 0 28-12.8 28-28v-32z m0.8 177.6c0-16-12.8-28-28-28h-32c-16 0-28 12.8-28 28v32c0 16 12.8 28 28 28h32c16 0 28-12.8 28-28v-32zM712.8 436.8c-122.4 0-221.6-99.2-221.6-221.6s99.2-221.6 221.6-221.6 221.6 99.2 221.6 221.6-99.2 221.6-221.6 221.6z m128-206.4c0-16-12.8-28.8-28.8-28.8H721.6c-16 0-28.8 12.8-28.8 28.8v124c0 16 12.8 28.8 28.8 28.8h2.4c16 0 28.8-12.8 28.8-28.8V264h58.4c16 0 28.8-12.8 28.8-28.8 0.8 0 0.8-4.8 0.8-4.8z"  horiz-adv-x="1024" />

    
    <glyph glyph-name="read1" unicode="&#58910;" d="M900.8 497.6c21.6-16 35.2-41.6 35.2-69.6v-351.2c0-48-39.2-86.4-86.4-86.4H176c-48 0-86.4 39.2-86.4 86.4V427.2c0 22.4 8.8 43.2 23.2 58.4l4 4 344 289.6c33.6 28.8 67.2 29.6 100.8 4l339.2-285.6z m-664.8 80v-208.8L516.8 152l256 200.8V577.6H236z m91.2-50.4v-35.2h358.4v35.2H327.2z m0-147.2v-35.2h358.4v35.2H327.2z m0 74.4v-35.2h358.4v35.2H327.2z m-144-409.6L352 206.4c7.2 7.2 7.2 18.4 0.8 25.6-7.2 7.2-18.4 7.2-25.6 0.8l-168.8-161.6c-7.2-7.2-7.2-18.4-0.8-25.6 7.2-8 18.4-8 25.6-0.8z m696 25.6L710.4 232c-7.2 7.2-18.4 6.4-25.6-0.8-7.2-7.2-6.4-18.4 0.8-25.6l168.8-161.6c7.2-7.2 18.4-6.4 25.6 0.8 6.4 7.2 6.4 19.2-0.8 25.6z"  horiz-adv-x="1024" />

    
    <glyph glyph-name="dic" unicode="&#59028;" d="M945.125093 642.900561c-7.411807 10.317996-18.319228 17.775852-31.775704 23.152303 0.542352-12.384052-0.218988-22.547529-2.688225-30.688953L749.083162 103.76452800000004c-5.747911-18.897396-27.998681-30.676673-49.009204-30.676673L202.964086 73.087854c-43.091424 0-68.65259 12.494569-77.573773 37.697577-3.464915 9.78997-3.353374 17.312294 0.545422 23.155373 3.65218 5.470595 10.769274 8.080026 20.481474 8.080026l468.022393 0c33.390481 0 56.404638 6.061043 68.945255 18.304901 12.788258 12.524245 25.8876 40.370453 38.771025 82.9492l147.57508 487.949234c7.987928 26.415626 4.846378 50.096978-9.697873 70.018703-14.545274 19.937075-35.008328 30.160927-61.393255 30.160927L388.763746 831.403796c-4.846378 0-13.999852-1.614777-27.472702-4.848425l0.545422 1.616824c-68.948325 19.393699-71.946612-54.558593-95.334275-87.794555-7.303336-10.396791-21.957081-25.874297-23.696702-33.394574-1.490957-6.479575 3.356444-22.080901 2.703575-28.002774-1.490957-13.488199-6.695492-31.140231-15.087627-52.226478-8.314363-20.915355-15.618723-36.113499-22.6253-45.248553l-11.840676-12.385075c-6.060019-6.340405-10.239202-11.311627-11.840676-16.161075-1.632173-1.613754-1.89721-7.039323-0.544399-15.072277 1.351787-8.143471 2.068102-14.002922 1.616824-17.247826-1.708921-12.370749-5.918803-28.54615-13.472849-48.465828-7.535627-19.936051-15.198144-36.549427-22.607904-49.555649-1.198292-2.095731-4.320399-6.464225-9.169847-12.383028-4.832052-5.921873-8.096399-11.296277-9.152451-15.089673-1.647523-5.904477 2.161223-24.224728 0-31.233352-2.688225-13.450337-7.970532-30.201859-16.159028-49.530067-7.972579-18.895349-16.117073-35.585473-24.242124-49.04195-7.490601-12.399401-21.318538-26.384927-22.065552-36.608779-0.325411-4.350075 3.869121-16.162098 3.216251-22.065552L69.389882 186.71270500000003c-0.870834-8.113795-1.616824-12.930497-1.616824-14.544251-8.081049-21.539572-7.659447-44.194548 1.071402-68.403926 10.116405-28.03245 28.05087-51.65445 53.331649-70.548776 25.888624-19.329231 52.770877-29.089525 80.244602-29.089525l497.110895 0c23.153326 0 45.141106 8.204869 65.715701 23.713075 20.900006 15.756869 34.435277 34.465976 41.473577 57.621349l148.102083 487.965607C962.687074 599.329207 959.796234 622.527558 945.125093 642.900561zM338.681094 538.414859c2.968611 9.076726 13.472849 17.232476 22.60995 17.232476l327.470263 0c10.223852 0 14.824637-8.15575 11.840676-17.232476l-11.296277-34.463929c-2.983961-9.076726-13.472849-17.232476-22.6253-17.232476L339.210144 486.718453c-10.224876 0-14.824637 8.156774-11.840676 17.232476L338.681094 538.414859zM383.371946 676.293089c2.983961 9.076726 13.472849 17.232476 22.6253 17.232476l327.470263 0c10.242272 0 14.823614-8.156774 11.839653-17.232476l-11.310603-34.463929c-2.967588-9.074679-13.473873-17.247826-22.610974-17.247826L383.916345 624.581334c-10.224876 0-14.824637 8.17417-11.840676 17.247826L383.371946 676.293089z"  horiz-adv-x="1024" />

    
    <glyph glyph-name="xml1" unicode="&#59219;" d="M554.666667 512h234.666666L554.666667 746.666667V512M256 810.666667h341.333333l256-256v-512a85.333333 85.333333 0 0 0-85.333333-85.333334H256a85.333333 85.333333 0 0 0-85.333333 85.333334V725.333333c0 47.36 37.973333 85.333333 85.333333 85.333334m5.12-576l159.573333-159.573334 60.586667 60.16-99.413333 99.413334 99.413333 99.413333-60.586667 60.16-159.573333-159.573333m476.16 0l-159.573333 159.573333-60.586667-60.16 99.413333-99.413333-99.413333-99.413334 60.586667-60.16 159.573333 159.573334z"  horiz-adv-x="1024" />

    
    <glyph glyph-name="delete" unicode="&#58904;" d="M518.69767432 834c-91.33953487 0-165.68372109-72.48139541-168.82325596-163.31860459H136.72093027A42.99069727 42.99069727 0 0 1 93.73023213 627.73255781a42.99069727 42.99069727 0 0 1 42.99069814-42.94883672h47.469767V103.32558164c0-90.39767432 61.36744219-164.21860459 137.030233-164.21860459h386.01627891c75.66279082 0 137.03023213 73.38139541 137.03023301 164.21860459V584.30232568h42.99069726a42.99069727 42.99069727 0 0 1 42.99069815 42.969767 42.99069727 42.99069727 0 0 1-42.99069815 42.94883759h-200.17674404A168.36279083 168.36279083 0 0 1 518.69767432 834z m-94.24883672-155.63720918c3.11860459 43.74418623 40.98139541 77.81860459 87.76046513 77.81860459 46.77906973 0 84.66279082-34.05348808 87.3209294-77.81860459h-175.08139453z m-98.43488437-660.97674405c-27.23023213 0-57.20232568 34.40930273-57.2023257 83.53255782V581.1h505.80000001v-480.62093027c0-49.14418623-29.9511624-83.53255781-57.18139541-83.53255781H326.01395322v0.43953485zM385.53953487 133.67441836c21.41162754 0 38.90930273 19.04651192 38.90930273 42.90697705v244.8837211c0 23.86046513-17.49767432 42.90697705-38.90930273 42.90697617-21.39069727 0-38.90930273-19.04651192-38.90930274-42.90697617v-244.8837211c0-23.86046513 17.01627891-42.90697705 38.930233-42.90697705z m136.17209266 0c21.41162754 0 38.93023213 19.04651192 38.93023302 42.90697705v244.8837211c0 23.86046513-17.51860459 42.90697705-38.93023302 42.90697617-21.39069727 0-38.90930273-19.04651192-38.90930185-42.90697617v-244.8837211c0-23.86046513 17.51860459-42.90697705 38.93023213-42.90697705z m116.72790734 0c21.39069727 0 38.90930273 19.04651192 38.90930273 42.90697705v244.8837211c0 23.86046513-17.51860459 42.90697705-38.90930273 42.90697617s-38.90930273-19.04651192-38.90930274-42.90697617v-244.8837211c0-23.86046513 17.01627891-42.90697705 38.90930274-42.90697705z"  horiz-adv-x="1024" />

    
    <glyph glyph-name="moveup" unicode="&#58905;" d="M112 56m8 0l784 0q8 0 8-8l0-56q0-8-8-8l-784 0q-8 0-8 8l0 56q0 8 8 8ZM476 736h72v-568a8 8 0 0 0-8-8h-56a8 8 0 0 0-8 8V736zM512 682.177l117.49-117.49A16 16 0 0 1 640.804 560h75.882a8 8 0 0 1 5.657 13.657L534.627 761.373c-12.496 12.496-32.758 12.496-45.254 0L301.657 573.6569999999999A8 8 0 0 1 307.314 560h75.882a16 16 0 0 1 11.314 4.686L512 682.1759999999999z"  horiz-adv-x="1024" />

    
    <glyph glyph-name="movedown" unicode="&#58909;" d="M476 121.82299999999998V600a8 8 0 0 0 8 8h56a8 8 0 0 0 8-8v-478.177l81.49 81.49A16 16 0 0 0 640.804 208h75.882a8 8 0 0 0 5.657-13.657L534.627 6.626999999999953c-12.496-12.496-32.758-12.496-45.254 0L301.657 194.34299999999996A8 8 0 0 0 307.314 208h75.882a16 16 0 0 0 11.314-4.686l81.49-81.49zM120 712a8 8 0 0 0-8 8v56a8 8 0 0 0 8 8h784a8 8 0 0 0 8-8v-56a8 8 0 0 0-8-8H120z"  horiz-adv-x="1024" />

    
    <glyph glyph-name="more" unicode="&#58902;" d="M407.4 726.2a104.8 104.6 90 1 1 209.2 0 104.8 104.6 90 1 1-209.2 0ZM403 46.1a109.1 109 90 1 1 218 0 109.1 109 90 1 1-218 0ZM403 386.2a109.1 109 90 1 1 218 0 109.1 109 90 1 1-218 0Z"  horiz-adv-x="1024" />

    
    </font>
</defs>
</svg>
